<svg class="main-svg" xmlns="http://www.w3.org/2000/svg" xmlns:xlink="http://www.w3.org/1999/xlink" width="700" height="500" style="" viewBox="0 0 700 500"><rect x="0" y="0" width="700" height="500" style="fill: rgb(255, 255, 255); fill-opacity: 1;"/><defs id="defs-d48ab5"><g class="clips"><clipPath id="clipd48ab5xyplot" class="plotclip"><rect width="525" height="320"/></clipPath><clipPath class="axesclip" id="clipd48ab5x"><rect x="80" y="0" width="525" height="500"/></clipPath><clipPath class="axesclip" id="clipd48ab5y"><rect x="0" y="100" width="700" height="320"/></clipPath><clipPath class="axesclip" id="clipd48ab5xy"><rect x="80" y="100" width="525" height="320"/></clipPath></g><g class="gradients"/><g class="patterns"/></defs><g class="bglayer"><rect class="bg" x="80" y="100" width="525" height="320" style="fill: rgb(229, 236, 246); fill-opacity: 1; stroke-width: 0;"/></g><g class="layer-below"><g class="imagelayer"/><g class="shapelayer"/></g><g class="cartesianlayer"><g class="subplot xy"><g class="layer-subplot"><g class="shapelayer"/><g class="imagelayer"/></g><g class="minor-gridlayer"><g class="x"/><g class="y"/></g><g class="gridlayer"><g class="x"><path class="xgrid crisp" transform="translate(143.14,0)" d="M0,100v320" style="stroke: rgb(255, 255, 255); stroke-opacity: 1; stroke-width: 1px;"/><path class="xgrid crisp" transform="translate(226.48,0)" d="M0,100v320" style="stroke: rgb(255, 255, 255); stroke-opacity: 1; stroke-width: 1px;"/><path class="xgrid crisp" transform="translate(310.05,0)" d="M0,100v320" style="stroke: rgb(255, 255, 255); stroke-opacity: 1; stroke-width: 1px;"/><path class="xgrid crisp" transform="translate(393.39,0)" d="M0,100v320" style="stroke: rgb(255, 255, 255); stroke-opacity: 1; stroke-width: 1px;"/><path class="xgrid crisp" transform="translate(476.72,0)" d="M0,100v320" style="stroke: rgb(255, 255, 255); stroke-opacity: 1; stroke-width: 1px;"/><path class="xgrid crisp" transform="translate(560.06,0)" d="M0,100v320" style="stroke: rgb(255, 255, 255); stroke-opacity: 1; stroke-width: 1px;"/></g><g class="y"><path class="ygrid crisp" transform="translate(0,339.56)" d="M80,0h525" style="stroke: rgb(255, 255, 255); stroke-opacity: 1; stroke-width: 1px;"/><path class="ygrid crisp" transform="translate(0,273.81)" d="M80,0h525" style="stroke: rgb(255, 255, 255); stroke-opacity: 1; stroke-width: 1px;"/><path class="ygrid crisp" transform="translate(0,208.05)" d="M80,0h525" style="stroke: rgb(255, 255, 255); stroke-opacity: 1; stroke-width: 1px;"/><path class="ygrid crisp" transform="translate(0,142.3)" d="M80,0h525" style="stroke: rgb(255, 255, 255); stroke-opacity: 1; stroke-width: 1px;"/></g></g><g class="zerolinelayer"><path class="yzl zl crisp" transform="translate(0,405.32)" d="M80,0h525" style="stroke: rgb(255, 255, 255); stroke-opacity: 1; stroke-width: 2px;"/></g><g class="layer-between"><g class="shapelayer"/><g class="imagelayer"/></g><path class="xlines-below"/><path class="ylines-below"/><g class="overlines-below"/><g class="xaxislayer-below"/><g class="yaxislayer-below"/><g class="overaxes-below"/><g class="overplot"><g class="xy" transform="translate(80,100)" clip-path="url(#clipd48ab5xyplot)"><g class="scatterlayer mlayer"><g class="trace scatter trace7aaa74" style="stroke-miterlimit: 2; opacity: 1;"><g class="fills"/><g class="errorbars"/><g class="lines"><path class="js-line" d="M78.26,304L78.45,301.37L96.82,300.05L99.18,298.74L111.92,297.42L116.48,296.11L116.91,294.79L140.23,292.16L140.23,290.85L158.31,289.53L164.42,288.22L169.09,286.9L169.1,285.59L172.05,284.27L172.66,282.96L172.69,276.38L175.3,275.07L187.81,273.75L190.09,272.44L191.89,271.12L191.89,269.81L209.09,267.18L211.79,265.86L211.79,264.55L218.7,263.23L224.79,260.6L224.79,259.29L234.12,256.66L236.16,255.34L238.23,254.03L238.25,252.71L240.72,247.45L240.94,246.14L242.96,242.19L244.68,240.88L247.94,238.25L249.36,236.93L254.44,235.62L254.96,234.3L261.94,232.99L261.96,231.67L266.66,230.36L267.89,229.04L273.64,227.73L274.07,226.41L282.27,222.47L282.7,221.15L284.05,218.52L289.37,217.21L291.89,211.95L291.89,210.63L292.42,206.68L296.62,205.37L296.8,204.05L302.03,202.74L302.78,200.11L314.02,198.79L317.86,197.48L318.82,196.16L319.28,193.53L320.66,192.22L322.36,190.9L322.5,189.59L323.68,188.27L323.71,186.96L325.75,185.64L325.98,184.33L329.8,183.01L330.76,181.7L341.69,176.44L341.69,175.12L342.05,167.23L344.14,165.92L349.38,164.6L350.69,163.29L351.62,158.03L357.11,156.71L370.36,152.77L371.75,151.45L379.08,150.14L381.7,148.82L381.82,147.51L389.13,146.19L390.82,143.56L392.33,142.25L392.97,139.62L393,138.3L401.21,136.99L402.19,135.67L402.48,130.41L404.35,129.1L405.56,126.47L407.45,125.15L407.54,123.84L410.9,122.52L411.74,119.89L413.78,118.58L413.99,117.26L416.98,115.95L417.65,114.63L422,113.32L423.05,112L423.09,110.68L424.81,109.37L429.54,108.05L429.76,102.79L431.23,101.48L431.31,100.16L432.78,98.85L434.14,94.9L438.97,93.59L445.07,88.33L445.58,87.01L446.2,84.38L446.2,83.07L446.61,81.75L450.31,80.44L455.1,79.12L455.25,77.81L461.69,73.86L463.27,72.55L464.77,71.23L464.77,69.92L465.72,68.6L468.86,67.29L469.06,62.03L471.33,60.71L477.42,59.4L477.47,58.08L477.67,56.77L487.64,55.45L491.12,51.51L491.12,50.19L493.36,47.56L496.05,46.25L498.28,44.93L499.02,43.62L499.42,42.3L502.87,40.99L504.8,39.67L505.16,38.36L507.43,35.73L508.11,34.41L512.87,31.78L513.02,30.47L515.82,26.52L518.59,25.21L521.04,22.58L521.16,21.26L522.38,18.63L523.08,17.32L525,16" style="vector-effect: none; fill: none; stroke: rgb(99, 110, 250); stroke-opacity: 1; stroke-width: 2px; opacity: 1;"/></g><g class="points"/><g class="text"/></g><g class="trace scatter trace062e5c" style="stroke-miterlimit: 2; opacity: 1;"><g class="fills"/><g class="errorbars"/><g class="lines"><path class="js-line" d="M0,304L0.08,300.05L103.96,298.74L157.64,297.42L177.37,296.11L202.04,294.79L203.65,293.48L216.78,292.16L220.66,290.85L220.66,289.53L222.95,288.22L260.95,284.27L261.96,282.96L274.23,279.01L322.09,277.7L336.34,276.38L338.92,275.07L341.15,273.75L362.2,272.44L374.73,271.12L377.24,269.81L397.77,265.86L401.89,264.55L466.56,261.92L477.71,260.6L502.8,257.97L516.46,256.66L517.43,255.34L520.4,254.03L520.53,252.71" style="vector-effect: none; fill: none; stroke: rgb(239, 85, 59); stroke-opacity: 1; stroke-width: 2px; opacity: 1;"/></g><g class="points"/><g class="text"/></g><g class="trace scatter trace5cc426" style="stroke-miterlimit: 2; opacity: 1;"><g class="fills"/><g class="errorbars"/><g class="lines"><path class="js-line" d="M178.15,304L218.58,301.37L223.4,300.05L267.46,297.42L267.46,296.11L269.73,294.79L295.92,293.48L297.3,292.16L356,290.85L362.65,289.53L405.41,288.22L409.01,286.9L418.75,285.59L444.98,281.64L448.68,280.33L449.14,279.01L455.1,277.7L457.19,276.38L461.33,275.07L463.4,273.75L471.2,272.44L472.73,271.12L486.82,269.81L492.86,268.49L494.83,267.18L495.32,265.86L501.51,264.55L503.11,263.23L510.6,261.92L512.59,260.6" style="vector-effect: none; fill: none; stroke: rgb(0, 204, 150); stroke-opacity: 1; stroke-width: 2px; opacity: 1;"/></g><g class="points"/><g class="text"/></g></g></g></g><path class="xlines-above crisp" d="M0,0" style="fill: none;"/><path class="ylines-above crisp" d="M0,0" style="fill: none;"/><g class="overlines-above"/><g class="xaxislayer-above"><g class="xtick"><text text-anchor="middle" x="0" y="433" transform="translate(143.14,0)" style="font-family: 'Open Sans', verdana, arial, sans-serif; font-size: 12px; fill: rgb(42, 63, 95); fill-opacity: 1; white-space: pre; opacity: 1;">2019</text></g><g class="xtick"><text text-anchor="middle" x="0" y="433" style="font-family: 'Open Sans', verdana, arial, sans-serif; font-size: 12px; fill: rgb(42, 63, 95); fill-opacity: 1; white-space: pre; opacity: 1;" transform="translate(226.48,0)">2020</text></g><g class="xtick"><text text-anchor="middle" x="0" y="433" style="font-family: 'Open Sans', verdana, arial, sans-serif; font-size: 12px; fill: rgb(42, 63, 95); fill-opacity: 1; white-space: pre; opacity: 1;" transform="translate(310.05,0)">2021</text></g><g class="xtick"><text text-anchor="middle" x="0" y="433" style="font-family: 'Open Sans', verdana, arial, sans-serif; font-size: 12px; fill: rgb(42, 63, 95); fill-opacity: 1; white-space: pre; opacity: 1;" transform="translate(393.39,0)">2022</text></g><g class="xtick"><text text-anchor="middle" x="0" y="433" style="font-family: 'Open Sans', verdana, arial, sans-serif; font-size: 12px; fill: rgb(42, 63, 95); fill-opacity: 1; white-space: pre; opacity: 1;" transform="translate(476.72,0)">2023</text></g><g class="xtick"><text text-anchor="middle" x="0" y="433" style="font-family: 'Open Sans', verdana, arial, sans-serif; font-size: 12px; fill: rgb(42, 63, 95); fill-opacity: 1; white-space: pre; opacity: 1;" transform="translate(560.06,0)">2024</text></g></g><g class="yaxislayer-above"><g class="ytick"><text text-anchor="end" x="79" y="4.199999999999999" transform="translate(0,405.32)" style="font-family: 'Open Sans', verdana, arial, sans-serif; font-size: 12px; fill: rgb(42, 63, 95); fill-opacity: 1; white-space: pre; opacity: 1;">0</text></g><g class="ytick"><text text-anchor="end" x="79" y="4.199999999999999" style="font-family: 'Open Sans', verdana, arial, sans-serif; font-size: 12px; fill: rgb(42, 63, 95); fill-opacity: 1; white-space: pre; opacity: 1;" transform="translate(0,339.56)">50</text></g><g class="ytick"><text text-anchor="end" x="79" y="4.199999999999999" style="font-family: 'Open Sans', verdana, arial, sans-serif; font-size: 12px; fill: rgb(42, 63, 95); fill-opacity: 1; white-space: pre; opacity: 1;" transform="translate(0,273.81)">100</text></g><g class="ytick"><text text-anchor="end" x="79" y="4.199999999999999" style="font-family: 'Open Sans', verdana, arial, sans-serif; font-size: 12px; fill: rgb(42, 63, 95); fill-opacity: 1; white-space: pre; opacity: 1;" transform="translate(0,208.05)">150</text></g><g class="ytick"><text text-anchor="end" x="79" y="4.199999999999999" style="font-family: 'Open Sans', verdana, arial, sans-serif; font-size: 12px; fill: rgb(42, 63, 95); fill-opacity: 1; white-space: pre; opacity: 1;" transform="translate(0,142.3)">200</text></g></g><g class="overaxes-above"/></g></g><g class="polarlayer"/><g class="smithlayer"/><g class="ternarylayer"/><g class="geolayer"/><g class="funnelarealayer"/><g class="pielayer"/><g class="iciclelayer"/><g class="treemaplayer"/><g class="sunburstlayer"/><g class="glimages"/><defs id="topdefs-d48ab5"><g class="clips"/><clipPath id="legendd48ab5"><rect width="72" height="67" x="0" y="0"/></clipPath></defs><g class="layer-above"><g class="imagelayer"/><g class="shapelayer"/></g><g class="infolayer"><g class="legend" pointer-events="all" transform="translate(615.5,100)"><rect class="bg" shape-rendering="crispEdges" style="stroke: rgb(68, 68, 68); stroke-opacity: 1; fill: rgb(255, 255, 255); fill-opacity: 1; stroke-width: 0px;" width="72" height="67" x="0" y="0"/><g class="scrollbox" transform="" clip-path="url(#legendd48ab5)"><g class="groups"><g class="traces" transform="translate(0,14.5)" style="opacity: 1;"><text class="legendtext" text-anchor="start" x="40" y="4.680000000000001" style="font-family: 'Open Sans', verdana, arial, sans-serif; font-size: 12px; fill: rgb(42, 63, 95); fill-opacity: 1; white-space: pre;">EEG</text><g class="layers" style="opacity: 1;"><g class="legendfill"/><g class="legendlines"><path class="js-line" d="M5,0h30" style="fill: none; stroke: rgb(99, 110, 250); stroke-opacity: 1; stroke-width: 2px;"/></g><g class="legendsymbols"><g class="legendpoints"/></g></g><rect class="legendtoggle" x="0" y="-9.5" width="66.25" height="19" style="fill: rgb(0, 0, 0); fill-opacity: 0;"/></g><g class="traces" transform="translate(0,33.5)" style="opacity: 1;"><text class="legendtext" text-anchor="start" x="40" y="4.680000000000001" style="font-family: 'Open Sans', verdana, arial, sans-serif; font-size: 12px; fill: rgb(42, 63, 95); fill-opacity: 1; white-space: pre;">MEG</text><g class="layers" style="opacity: 1;"><g class="legendfill"/><g class="legendlines"><path class="js-line" d="M5,0h30" style="fill: none; stroke: rgb(239, 85, 59); stroke-opacity: 1; stroke-width: 2px;"/></g><g class="legendsymbols"><g class="legendpoints"/></g></g><rect class="legendtoggle" x="0" y="-9.5" width="66.25" height="19" style="fill: rgb(0, 0, 0); fill-opacity: 0;"/></g><g class="traces" transform="translate(0,52.5)" style="opacity: 1;"><text class="legendtext" text-anchor="start" x="40" y="4.680000000000001" style="font-family: 'Open Sans', verdana, arial, sans-serif; font-size: 12px; fill: rgb(42, 63, 95); fill-opacity: 1; white-space: pre;">iEEG</text><g class="layers" style="opacity: 1;"><g class="legendfill"/><g class="legendlines"><path class="js-line" d="M5,0h30" style="fill: none; stroke: rgb(0, 204, 150); stroke-opacity: 1; stroke-width: 2px;"/></g><g class="legendsymbols"><g class="legendpoints"/></g></g><rect class="legendtoggle" x="0" y="-9.5" width="66.25" height="19" style="fill: rgb(0, 0, 0); fill-opacity: 0;"/></g></g></g><rect class="scrollbar" rx="20" ry="3" width="0" height="0" style="fill: rgb(128, 139, 164); fill-opacity: 1;" x="0" y="0"/></g><g class="g-gtitle"><text class="gtitle" x="350" y="50" text-anchor="middle" dy="0em" style="opacity: 1; font-family: 'Open Sans', verdana, arial, sans-serif; font-size: 17px; fill: rgb(42, 63, 95); fill-opacity: 1; white-space: pre;">Dataset Publications Over Time for Primary Modalities</text></g><g class="g-xtitle"><text class="xtitle" x="342.5" y="460.8" text-anchor="middle" style="opacity: 1; font-family: 'Open Sans', verdana, arial, sans-serif; font-size: 14px; fill: rgb(42, 63, 95); fill-opacity: 1; white-space: pre;">Published Date</text></g><g class="g-ytitle"><text class="ytitle" transform="rotate(-90,39.00625,260)" x="39.00625" y="260" text-anchor="middle" style="opacity: 1; font-family: 'Open Sans', verdana, arial, sans-serif; font-size: 14px; fill: rgb(42, 63, 95); fill-opacity: 1; white-space: pre;">Cumulative Number of Publications</text></g></g></svg>