<svg class="main-svg" xmlns="http://www.w3.org/2000/svg" xmlns:xlink="http://www.w3.org/1999/xlink" width="1200" height="800" style="" viewBox="0 0 1200 800"><rect x="0" y="0" width="1200" height="800" style="fill: rgb(255, 255, 255); fill-opacity: 1;"/><defs id="defs-0dace8"><g class="clips"/><g class="gradients"/><g class="patterns"/></defs><g class="bglayer"/><g class="layer-below"><g class="imagelayer"/><g class="shapelayer"/></g><g class="cartesianlayer"/><g class="polarlayer"/><g class="smithlayer"/><g class="ternarylayer"/><g class="geolayer"/><g class="funnelarealayer"/><g class="pielayer"/><g class="iciclelayer"/><g class="treemaplayer"/><g class="sunburstlayer"/><g class="glimages"/><g class="sankey" transform="translate(80,100)matrix(1 0 0 1 0 0)" style="box-sizing: content-box; position: absolute; left: 0px; shape-rendering: geometricprecision; pointer-events: none;"><g class="sankey-links" style="fill: none;"><path class="sankey-link" d="M20,164.17529840198918C265,164.17529840198918 265,73.73599003736035 510,73.73599003736035L510,150.88210875882157C265,150.88210875882157 265,241.3214171234504 20,241.3214171234504Z" style="stroke: rgb(68, 68, 68); stroke-opacity: 1; fill: rgb(0, 0, 0); fill-opacity: 0.2; stroke-width: 0; opacity: 1;"/><path class="sankey-link" d="M20,251.93785547961477C265,251.93785547961477 265,294.7509339975097 510,294.7509339975097L510,320.93814860938187C265,320.93814860938187 265,278.1250700914869 20,278.1250700914869Z" style="stroke: rgb(68, 68, 68); stroke-opacity: 1; fill: rgb(0, 0, 0); fill-opacity: 0.2; stroke-width: 0; opacity: 1;"/><path class="sankey-link" d="M20,302.89675958920384C265,302.89675958920384 265,437.1398920713989 510,437.1398920713989L510,447.7563304275633C265,447.7563304275633 265,313.51319794536823 20,313.51319794536823Z" style="stroke: rgb(68, 68, 68); stroke-opacity: 1; fill: rgb(0, 0, 0); fill-opacity: 0.2; stroke-width: 0; opacity: 1;"/><path class="sankey-link" d="M20,249.8145678083819C265,249.8145678083819 265,255.05188875051925 510,255.05188875051925L510,257.17517642175216C265,257.17517642175216 265,251.9378554796148 20,251.9378554796148Z" style="stroke: rgb(68, 68, 68); stroke-opacity: 1; fill: rgb(0, 0, 0); fill-opacity: 0.2; stroke-width: 0; opacity: 1;"/><path class="sankey-link" d="M20,278.1250700914869C265,278.1250700914869 265,364.1760066417601 510,364.1760066417601L510,388.94769613947705C265,388.94769613947705 265,302.89675958920384 20,302.89675958920384Z" style="stroke: rgb(68, 68, 68); stroke-opacity: 1; fill: rgb(0, 0, 0); fill-opacity: 0.2; stroke-width: 0; opacity: 1;"/><path class="sankey-link" d="M20,241.32141712345037C265,241.32141712345037 265,208.27521793275258 510,208.27521793275258L510,216.76836861768408C265,216.76836861768408 265,249.81456780838187 20,249.81456780838187Z" style="stroke: rgb(68, 68, 68); stroke-opacity: 1; fill: rgb(0, 0, 0); fill-opacity: 0.2; stroke-width: 0; opacity: 1;"/><path class="sankey-link" d="M20,313.51319794536823C265,313.51319794536823 265,491.7019510170194 510,491.7019510170194L510,495.2407638024075C265,495.2407638024075 265,317.05201073075636 20,317.05201073075636Z" style="stroke: rgb(68, 68, 68); stroke-opacity: 1; fill: rgb(0, 0, 0); fill-opacity: 0.2; stroke-width: 0; opacity: 1;"/><path class="sankey-link" d="M20,317.05201073075636C265,317.05201073075636 265,534.2320464923204 510,534.2320464923204L510,535.6475716064757C265,535.6475716064757 265,318.4675358449116 20,318.4675358449116Z" style="stroke: rgb(68, 68, 68); stroke-opacity: 1; fill: rgb(0, 0, 0); fill-opacity: 0.2; stroke-width: 0; opacity: 1;"/><path class="sankey-link" d="M20,318.4675358449116C265,318.4675358449116 265,575.3466168534661 510,575.3466168534661L510,576.7621419676215C265,576.7621419676215 265,319.8830609590668 20,319.8830609590668Z" style="stroke: rgb(68, 68, 68); stroke-opacity: 1; fill: rgb(0, 0, 0); fill-opacity: 0.2; stroke-width: 0; opacity: 1;"/><path class="sankey-link" d="M20,357.4588185348244C265,357.4588185348244 265,150.88210875882157 510,150.88210875882157L510,164.32959734329648C265,164.32959734329648 265,370.90630711929924 20,370.90630711929924Z" style="stroke: rgb(68, 68, 68); stroke-opacity: 1; fill: rgb(0, 0, 0); fill-opacity: 0.2; stroke-width: 0; opacity: 1;"/><path class="sankey-link" d="M20,371.6140696763769C265,371.6140696763769 265,320.93814860938187 510,320.93814860938187L510,325.1847239518477C265,325.1847239518477 265,375.8606450188427 20,375.8606450188427Z" style="stroke: rgb(68, 68, 68); stroke-opacity: 1; fill: rgb(0, 0, 0); fill-opacity: 0.2; stroke-width: 0; opacity: 1;"/><path class="sankey-link" d="M20,382.9382705896189C265,382.9382705896189 265,447.7563304275633 510,447.7563304275633L510,448.46409298464096C265,448.46409298464096 265,383.6460331466966 20,383.6460331466966Z" style="stroke: rgb(0, 0, 0); stroke-opacity: 0.2; fill: rgb(0, 0, 0); fill-opacity: 0.2; stroke-width: 1; opacity: 1;"/><path class="sankey-link" d="M20,375.86064501884266C265,375.86064501884266 265,388.94769613947705 510,388.94769613947705L510,396.0253217102533C265,396.0253217102533 265,382.9382705896189 20,382.9382705896189Z" style="stroke: rgb(68, 68, 68); stroke-opacity: 1; fill: rgb(0, 0, 0); fill-opacity: 0.2; stroke-width: 0; opacity: 1;"/><path class="sankey-link" d="M20,370.9063071192993C265,370.9063071192993 265,216.7683686176841 510,216.7683686176841L510,217.47613117476172C265,217.47613117476172 265,371.61406967637697 20,371.61406967637697Z" style="stroke: rgb(0, 0, 0); stroke-opacity: 0.2; fill: rgb(0, 0, 0); fill-opacity: 0.2; stroke-width: 1; opacity: 1;"/><path class="sankey-link" d="M20,383.64603314669654C265,383.64603314669654 265,576.7621419676213 510,576.7621419676213L510,578.8854296388542C265,578.8854296388542 265,385.76932081792944 20,385.76932081792944Z" style="stroke: rgb(68, 68, 68); stroke-opacity: 1; fill: rgb(0, 0, 0); fill-opacity: 0.2; stroke-width: 0; opacity: 1;"/><path class="sankey-link" d="M20,423.345078393687C265,423.345078393687 265,164.32959734329646 510,164.32959734329646L510,170.6994603569951C265,170.6994603569951 265,429.7149414073856 20,429.7149414073856Z" style="stroke: rgb(68, 68, 68); stroke-opacity: 1; fill: rgb(0, 0, 0); fill-opacity: 0.2; stroke-width: 0; opacity: 1;"/><path class="sankey-link" d="M20,429.71494140738565C265,429.71494140738565 265,325.1847239518476 510,325.1847239518476L510,326.60024906600285C265,326.60024906600285 265,431.1304665215409 20,431.1304665215409Z" style="stroke: rgb(68, 68, 68); stroke-opacity: 1; fill: rgb(0, 0, 0); fill-opacity: 0.2; stroke-width: 0; opacity: 1;"/><path class="sankey-link" d="M20,434.669279306929C265,434.669279306929 265,448.4640929846409 510,448.4640929846409L510,454.12619344126193C265,454.12619344126193 265,440.33137976355005 20,440.33137976355005Z" style="stroke: rgb(68, 68, 68); stroke-opacity: 1; fill: rgb(0, 0, 0); fill-opacity: 0.2; stroke-width: 0; opacity: 1;"/><path class="sankey-link" d="M20,431.1304665215409C265,431.1304665215409 265,396.0253217102533 510,396.0253217102533L510,399.56413449564144C265,399.56413449564144 265,434.669279306929 20,434.669279306929Z" style="stroke: rgb(68, 68, 68); stroke-opacity: 1; fill: rgb(0, 0, 0); fill-opacity: 0.2; stroke-width: 0; opacity: 1;"/><path class="sankey-link" d="M20,440.33137976355005C265,440.33137976355005 265,495.2407638024075 510,495.2407638024075L510,496.65628891656274C265,496.65628891656274 265,441.7469048777053 20,441.7469048777053Z" style="stroke: rgb(68, 68, 68); stroke-opacity: 1; fill: rgb(0, 0, 0); fill-opacity: 0.2; stroke-width: 0; opacity: 1;"/><path class="sankey-link" d="M20,441.7469048777053C265,441.7469048777053 265,535.6475716064756 510,535.6475716064756L510,537.7708592777085C265,537.7708592777085 265,443.8701925489382 20,443.8701925489382Z" style="stroke: rgb(68, 68, 68); stroke-opacity: 1; fill: rgb(0, 0, 0); fill-opacity: 0.2; stroke-width: 0; opacity: 1;"/><path class="sankey-link" d="M20,443.8701925489382C265,443.8701925489382 265,616.4611872146118 510,616.4611872146118L510,619.9999999999998C265,619.9999999999998 265,447.4090053343263 20,447.4090053343263Z" style="stroke: rgb(68, 68, 68); stroke-opacity: 1; fill: rgb(0, 0, 0); fill-opacity: 0.2; stroke-width: 0; opacity: 1;"/><path class="sankey-link" d="M530,73.73599003736035C775,73.73599003736035 775,1.4210854715202004e-14 1020,1.4210854715202004e-14L1020,9.20091324200915C775,9.20091324200915 775,82.93690327936949 530,82.93690327936949Z" style="stroke: rgb(68, 68, 68); stroke-opacity: 1; fill: rgb(0, 0, 0); fill-opacity: 0.2; stroke-width: 0; opacity: 1;"/><path class="sankey-link" d="M530,99.21544209215489C775,99.21544209215489 775,110.53964300539627 1020,110.53964300539627L1020,127.52594437525929C775,127.52594437525929 775,116.2017434620179 530,116.2017434620179Z" style="stroke: rgb(68, 68, 68); stroke-opacity: 1; fill: rgb(0, 0, 0); fill-opacity: 0.2; stroke-width: 0; opacity: 1;"/><path class="sankey-link" d="M530,150.17434620174393C775,150.17434620174393 775,318.81486093814834 1020,318.81486093814834L1020,325.18472395184693C775,325.18472395184693 775,156.54420921544258 530,156.54420921544258Z" style="stroke: rgb(68, 68, 68); stroke-opacity: 1; fill: rgb(0, 0, 0); fill-opacity: 0.2; stroke-width: 0; opacity: 1;"/><path class="sankey-link" d="M530,133.18804483188092C775,133.18804483188092 775,245.85097550850958 1020,245.85097550850958L1020,262.8372768783726C775,262.8372768783726 775,150.17434620174396 530,150.17434620174396Z" style="stroke: rgb(68, 68, 68); stroke-opacity: 1; fill: rgb(0, 0, 0); fill-opacity: 0.2; stroke-width: 0; opacity: 1;"/><path class="sankey-link" d="M530,163.6218347862188C775,163.6218347862188 775,426.5234537152345 1020,426.5234537152345L1020,429.35450394354496C775,429.35450394354496 775,166.45288501452933 530,166.45288501452933Z" style="stroke: rgb(68, 68, 68); stroke-opacity: 1; fill: rgb(0, 0, 0); fill-opacity: 0.2; stroke-width: 0; opacity: 1;"/><path class="sankey-link" d="M530,82.93690327936949C775,82.93690327936949 775,51.73100871731003 1020,51.73100871731003L1020,68.00954753009543C775,68.00954753009543 775,99.21544209215489 530,99.21544209215489Z" style="stroke: rgb(68, 68, 68); stroke-opacity: 1; fill: rgb(0, 0, 0); fill-opacity: 0.2; stroke-width: 0; opacity: 1;"/><path class="sankey-link" d="M530,156.54420921544255C775,156.54420921544255 775,371.9613947696138 1020,371.9613947696138L1020,379.03902034039004C775,379.03902034039004 775,163.6218347862188 530,163.6218347862188Z" style="stroke: rgb(68, 68, 68); stroke-opacity: 1; fill: rgb(0, 0, 0); fill-opacity: 0.2; stroke-width: 0; opacity: 1;"/><path class="sankey-link" d="M530,116.2017434620179C775,116.2017434620179 775,179.96471564964696 1020,179.96471564964696L1020,196.95101701951C775,196.95101701951 775,133.18804483188092 530,133.18804483188092Z" style="stroke: rgb(68, 68, 68); stroke-opacity: 1; fill: rgb(0, 0, 0); fill-opacity: 0.2; stroke-width: 0; opacity: 1;"/><path class="sankey-link" d="M530,166.45288501452933C775,166.45288501452933 775,483.91656288916556 1020,483.91656288916556L1020,485.3320880033208C775,485.3320880033208 775,167.86841012868456 530,167.86841012868456Z" style="stroke: rgb(68, 68, 68); stroke-opacity: 1; fill: rgb(0, 0, 0); fill-opacity: 0.2; stroke-width: 0; opacity: 1;"/><path class="sankey-link" d="M530,167.8684101286846C775,167.8684101286846 775,529.9854711498547 1020,529.9854711498547L1020,532.1087588210876C775,532.1087588210876 775,169.9916977999175 530,169.9916977999175Z" style="stroke: rgb(68, 68, 68); stroke-opacity: 1; fill: rgb(0, 0, 0); fill-opacity: 0.2; stroke-width: 0; opacity: 1;"/><path class="sankey-link" d="M530,295.45869655458733C775,295.45869655458733 775,130.3569946035698 1020,130.3569946035698L1020,136.01909506019084C775,136.01909506019084 775,301.12079701120837 530,301.12079701120837Z" style="stroke: rgb(68, 68, 68); stroke-opacity: 1; fill: rgb(0, 0, 0); fill-opacity: 0.2; stroke-width: 0; opacity: 1;"/><path class="sankey-link" d="M530,315.2760481527609C775,315.2760481527609 775,326.6002490660022 1020,326.6002490660022L1020,331.5545869655456C775,331.5545869655456 775,320.23038605230425 530,320.23038605230425Z" style="stroke: rgb(68, 68, 68); stroke-opacity: 1; fill: rgb(0, 0, 0); fill-opacity: 0.2; stroke-width: 0; opacity: 1;"/><path class="sankey-link" d="M530,306.7828974678294C775,306.7828974678294 775,264.25280199252785 1020,264.25280199252785L1020,272.74595267745934C775,272.74595267745934 775,315.2760481527609 530,315.2760481527609Z" style="stroke: rgb(68, 68, 68); stroke-opacity: 1; fill: rgb(0, 0, 0); fill-opacity: 0.2; stroke-width: 0; opacity: 1;"/><path class="sankey-link" d="M530,323.7691988376924C775,323.7691988376924 775,430.0622665006226 1020,430.0622665006226L1020,431.47779161477786C775,431.47779161477786 775,325.1847239518476 530,325.1847239518476Z" style="stroke: rgb(68, 68, 68); stroke-opacity: 1; fill: rgb(0, 0, 0); fill-opacity: 0.2; stroke-width: 0; opacity: 1;"/><path class="sankey-link" d="M530,294.7509339975097C775,294.7509339975097 775,68.00954753009543 1020,68.00954753009543L1020,68.71731008717305C775,68.71731008717305 775,295.4586965545874 530,295.4586965545874Z" style="stroke: rgb(0, 0, 0); stroke-opacity: 0.2; fill: rgb(0, 0, 0); fill-opacity: 0.2; stroke-width: 1; opacity: 1;"/><path class="sankey-link" d="M530,320.23038605230425C775,320.23038605230425 775,379.03902034039004 1020,379.03902034039004L1020,382.57783312577817C775,382.57783312577817 775,323.7691988376924 530,323.7691988376924Z" style="stroke: rgb(68, 68, 68); stroke-opacity: 1; fill: rgb(0, 0, 0); fill-opacity: 0.2; stroke-width: 0; opacity: 1;"/><path class="sankey-link" d="M530,301.12079701120837C775,301.12079701120837 775,197.6587795765876 1020,197.6587795765876L1020,203.32088003320862C775,203.32088003320862 775,306.7828974678294 530,306.7828974678294Z" style="stroke: rgb(68, 68, 68); stroke-opacity: 1; fill: rgb(0, 0, 0); fill-opacity: 0.2; stroke-width: 0; opacity: 1;"/><path class="sankey-link" d="M530,325.1847239518476C775,325.1847239518476 775,485.3320880033208 1020,485.3320880033208L1020,486.747613117476C775,486.747613117476 775,326.60024906600285 530,326.60024906600285Z" style="stroke: rgb(68, 68, 68); stroke-opacity: 1; fill: rgb(0, 0, 0); fill-opacity: 0.2; stroke-width: 0; opacity: 1;"/><path class="sankey-link" d="M530,437.1398920713989C775,437.1398920713989 775,141.6811955168118 1020,141.6811955168118L1020,142.38895807388943C775,142.38895807388943 775,437.84765462847656 530,437.84765462847656Z" style="stroke: rgb(0, 0, 0); stroke-opacity: 0.2; fill: rgb(0, 0, 0); fill-opacity: 0.2; stroke-width: 1; opacity: 1;"/><path class="sankey-link" d="M530,447.7563304275632C775,447.7563304275632 775,573.2233291822333 1020,573.2233291822333L1020,579.593192195932C775,579.593192195932 775,454.1261934412618 530,454.1261934412618Z" style="stroke: rgb(68, 68, 68); stroke-opacity: 1; fill: rgb(0, 0, 0); fill-opacity: 0.2; stroke-width: 0; opacity: 1;"/><path class="sankey-link" d="M530,437.8476546284765C775,437.8476546284765 775,333.6778746367785 1020,333.6778746367785L1020,334.38563719385616C775,334.38563719385616 775,438.5554171855542 530,438.5554171855542Z" style="stroke: rgb(0, 0, 0); stroke-opacity: 0.2; fill: rgb(0, 0, 0); fill-opacity: 0.2; stroke-width: 1; opacity: 1;"/><path class="sankey-link" d="M530,438.5554171855541C775,438.5554171855541 775,433.60107928601076 1020,433.60107928601076L1020,442.09422997094225C775,442.09422997094225 775,447.0485678704856 530,447.0485678704856Z" style="stroke: rgb(68, 68, 68); stroke-opacity: 1; fill: rgb(0, 0, 0); fill-opacity: 0.2; stroke-width: 0; opacity: 1;"/><path class="sankey-link" d="M530,447.0485678704856C775,447.0485678704856 775,488.16313823163125 1020,488.16313823163125L1020,488.8709007887089C775,488.8709007887089 775,447.7563304275633 530,447.7563304275633Z" style="stroke: rgb(0, 0, 0); stroke-opacity: 0.2; fill: rgb(0, 0, 0); fill-opacity: 0.2; stroke-width: 1; opacity: 1;"/><path class="sankey-link" d="M530,255.05188875051925C775,255.05188875051925 775,128.94146948941454 1020,128.94146948941454L1020,130.35699460356977C775,130.35699460356977 775,256.4674138646745 530,256.4674138646745Z" style="stroke: rgb(68, 68, 68); stroke-opacity: 1; fill: rgb(0, 0, 0); fill-opacity: 0.2; stroke-width: 0; opacity: 1;"/><path class="sankey-link" d="M530,256.4674138646745C775,256.4674138646745 775,325.8924865089246 1020,325.8924865089246L1020,326.6002490660023C775,326.6002490660023 775,257.17517642175216 530,257.17517642175216Z" style="stroke: rgb(0, 0, 0); stroke-opacity: 0.2; fill: rgb(0, 0, 0); fill-opacity: 0.2; stroke-width: 1; opacity: 1;"/><path class="sankey-link" d="M530,364.1760066417601C775,364.1760066417601 775,13.447488584474906 1020,13.447488584474906L1020,14.155251141552531C775,14.155251141552531 775,364.8837691988378 530,364.8837691988378Z" style="stroke: rgb(0, 0, 0); stroke-opacity: 0.2; fill: rgb(0, 0, 0); fill-opacity: 0.2; stroke-width: 1; opacity: 1;"/><path class="sankey-link" d="M530,368.42258198422587C775,368.42258198422587 775,136.0190950601908 1020,136.0190950601908L1020,141.68119551681184C775,141.68119551681184 775,374.0846824408469 530,374.0846824408469Z" style="stroke: rgb(68, 68, 68); stroke-opacity: 1; fill: rgb(0, 0, 0); fill-opacity: 0.2; stroke-width: 0; opacity: 1;"/><path class="sankey-link" d="M530,387.53217102532176C775,387.53217102532176 775,331.5545869655456 1020,331.5545869655456L1020,333.6778746367785C775,333.6778746367785 775,389.65545869655466 530,389.65545869655466Z" style="stroke: rgb(68, 68, 68); stroke-opacity: 1; fill: rgb(0, 0, 0); fill-opacity: 0.2; stroke-width: 0; opacity: 1;"/><path class="sankey-link" d="M530,379.03902034039027C775,379.03902034039027 775,272.74595267745934 1020,272.74595267745934L1020,281.23910336239084C775,281.23910336239084 775,387.53217102532176 530,387.53217102532176Z" style="stroke: rgb(68, 68, 68); stroke-opacity: 1; fill: rgb(0, 0, 0); fill-opacity: 0.2; stroke-width: 0; opacity: 1;"/><path class="sankey-link" d="M530,395.3175591531757C775,395.3175591531757 775,431.47779161477786 1020,431.47779161477786L1020,433.60107928601076C775,433.60107928601076 775,397.4408468244086 530,397.4408468244086Z" style="stroke: rgb(68, 68, 68); stroke-opacity: 1; fill: rgb(0, 0, 0); fill-opacity: 0.2; stroke-width: 0; opacity: 1;"/><path class="sankey-link" d="M530,364.88376919883774C775,364.88376919883774 775,68.71731008717306 1020,68.71731008717306L1020,72.25612287256119C775,72.25612287256119 775,368.42258198422587 530,368.42258198422587Z" style="stroke: rgb(68, 68, 68); stroke-opacity: 1; fill: rgb(0, 0, 0); fill-opacity: 0.2; stroke-width: 0; opacity: 1;"/><path class="sankey-link" d="M530,389.65545869655466C775,389.65545869655466 775,382.57783312577817 1020,382.57783312577817L1020,388.2399335823992C775,388.2399335823992 775,395.3175591531757 530,395.3175591531757Z" style="stroke: rgb(68, 68, 68); stroke-opacity: 1; fill: rgb(0, 0, 0); fill-opacity: 0.2; stroke-width: 0; opacity: 1;"/><path class="sankey-link" d="M530,374.0846824408469C775,374.0846824408469 775,203.3208800332086 1020,203.3208800332086L1020,208.27521793275196C775,208.27521793275196 775,379.03902034039027 530,379.03902034039027Z" style="stroke: rgb(68, 68, 68); stroke-opacity: 1; fill: rgb(0, 0, 0); fill-opacity: 0.2; stroke-width: 0; opacity: 1;"/><path class="sankey-link" d="M530,397.4408468244086C775,397.4408468244086 775,486.747613117476 1020,486.747613117476L1020,488.16313823163125C775,488.16313823163125 775,398.8563719385638 530,398.8563719385638Z" style="stroke: rgb(68, 68, 68); stroke-opacity: 1; fill: rgb(0, 0, 0); fill-opacity: 0.2; stroke-width: 0; opacity: 1;"/><path class="sankey-link" d="M530,208.27521793275258C775,208.27521793275258 775,9.20091324200915 1020,9.20091324200915L1020,13.447488584474904C775,13.447488584474904 775,212.52179327521833 530,212.52179327521833Z" style="stroke: rgb(68, 68, 68); stroke-opacity: 1; fill: rgb(0, 0, 0); fill-opacity: 0.2; stroke-width: 0; opacity: 1;"/><path class="sankey-link" d="M530,212.52179327521833C775,212.52179327521833 775,127.52594437525927 1020,127.52594437525927L1020,128.94146948941452C775,128.94146948941452 775,213.93731838937356 530,213.93731838937356Z" style="stroke: rgb(68, 68, 68); stroke-opacity: 1; fill: rgb(0, 0, 0); fill-opacity: 0.2; stroke-width: 0; opacity: 1;"/><path class="sankey-link" d="M530,216.06060606060646C775,216.06060606060646 775,325.184723951847 1020,325.184723951847L1020,325.89248650892466C775,325.89248650892466 775,216.76836861768408 530,216.76836861768408Z" style="stroke: rgb(0, 0, 0); stroke-opacity: 0.2; fill: rgb(0, 0, 0); fill-opacity: 0.2; stroke-width: 1; opacity: 1;"/><path class="sankey-link" d="M530,214.6450809464512C775,214.6450809464512 775,262.8372768783726 1020,262.8372768783726L1020,264.25280199252785C775,264.25280199252785 775,216.06060606060643 530,216.06060606060643Z" style="stroke: rgb(68, 68, 68); stroke-opacity: 1; fill: rgb(0, 0, 0); fill-opacity: 0.2; stroke-width: 0; opacity: 1;"/><path class="sankey-link" d="M530,216.76836861768408C775,216.76836861768408 775,429.354503943545 1020,429.354503943545L1020,430.0622665006227C775,430.0622665006227 775,217.4761311747617 530,217.4761311747617Z" style="stroke: rgb(0, 0, 0); stroke-opacity: 0.2; fill: rgb(0, 0, 0); fill-opacity: 0.2; stroke-width: 1; opacity: 1;"/><path class="sankey-link" d="M530,213.9373183893736C775,213.9373183893736 775,196.95101701950998 1020,196.95101701950998L1020,197.6587795765876C775,197.6587795765876 775,214.6450809464512 530,214.6450809464512Z" style="stroke: rgb(0, 0, 0); stroke-opacity: 0.2; fill: rgb(0, 0, 0); fill-opacity: 0.2; stroke-width: 1; opacity: 1;"/><path class="sankey-link" d="M530,492.409713574097C775,492.409713574097 775,442.09422997094225 1020,442.09422997094225L1020,443.5097550850975C775,443.5097550850975 775,493.8252386882522 530,493.8252386882522Z" style="stroke: rgb(68, 68, 68); stroke-opacity: 1; fill: rgb(0, 0, 0); fill-opacity: 0.2; stroke-width: 0; opacity: 1;"/><path class="sankey-link" d="M530,491.7019510170194C775,491.7019510170194 775,72.25612287256119 1020,72.25612287256119L1020,72.96388542963881C775,72.96388542963881 775,492.40971357409705 530,492.40971357409705Z" style="stroke: rgb(0, 0, 0); stroke-opacity: 0.2; fill: rgb(0, 0, 0); fill-opacity: 0.2; stroke-width: 1; opacity: 1;"/><path class="sankey-link" d="M530,493.8252386882522C775,493.8252386882522 775,617.1689497716895 1020,617.1689497716895L1020,620C775,620 775,496.6562889165627 530,496.6562889165627Z" style="stroke: rgb(68, 68, 68); stroke-opacity: 1; fill: rgb(0, 0, 0); fill-opacity: 0.2; stroke-width: 0; opacity: 1;"/><path class="sankey-link" d="M530,534.939809049398C775,534.939809049398 775,443.5097550850975 1020,443.5097550850975L1020,444.21751764217515C775,444.21751764217515 775,535.6475716064756 530,535.6475716064756Z" style="stroke: rgb(0, 0, 0); stroke-opacity: 0.2; fill: rgb(0, 0, 0); fill-opacity: 0.2; stroke-width: 1; opacity: 1;"/><path class="sankey-link" d="M530,534.2320464923204C775,534.2320464923204 775,388.2399335823992 1020,388.2399335823992L1020,388.9476961394769C775,388.9476961394769 775,534.9398090493979 530,534.9398090493979Z" style="stroke: rgb(0, 0, 0); stroke-opacity: 0.2; fill: rgb(0, 0, 0); fill-opacity: 0.2; stroke-width: 1; opacity: 1;"/><path class="sankey-link" d="M530,535.6475716064757C775,535.6475716064757 775,488.87090078870887 1020,488.87090078870887L1020,490.99418845994177C775,490.99418845994177 775,537.7708592777086 530,537.7708592777086Z" style="stroke: rgb(68, 68, 68); stroke-opacity: 1; fill: rgb(0, 0, 0); fill-opacity: 0.2; stroke-width: 0; opacity: 1;"/><path class="sankey-link" d="M530,616.4611872146118C775,616.4611872146118 775,444.2175176421751 1020,444.2175176421751L1020,446.340805313408C775,446.340805313408 775,618.5844748858447 530,618.5844748858447Z" style="stroke: rgb(68, 68, 68); stroke-opacity: 1; fill: rgb(0, 0, 0); fill-opacity: 0.2; stroke-width: 0; opacity: 1;"/><path class="sankey-link" d="M530,618.5844748858447C775,618.5844748858447 775,490.99418845994177 1020,490.99418845994177L1020,492.409713574097C775,492.409713574097 775,620 530,620Z" style="stroke: rgb(68, 68, 68); stroke-opacity: 1; fill: rgb(0, 0, 0); fill-opacity: 0.2; stroke-width: 0; opacity: 1;"/><path class="sankey-link" d="M530,575.3466168534661C775,575.3466168534661 775,532.1087588210876 1020,532.1087588210876L1020,535.6475716064756C775,535.6475716064756 775,578.8854296388541 530,578.8854296388541Z" style="stroke: rgb(68, 68, 68); stroke-opacity: 1; fill: rgb(0, 0, 0); fill-opacity: 0.2; stroke-width: 0; opacity: 1;"/></g><g class="sankey-node-set" style="cursor: move;"><g class="sankey-node" transform="translate(0.000,164.175)" style="opacity: 1;"><rect class="node-rect" width="20" height="155.70776255707764" style="stroke-width: 0.5; stroke: rgb(0, 0, 0); stroke-opacity: 1; fill: rgb(99, 110, 250); fill-opacity: 0.8;"/><text class="node-label" data-notex="1" x="0" y="0" text-anchor="start" transform="translate(23.25,82.05388127853882)" style="cursor: default; font-family: 'Open Sans', verdana, arial, sans-serif; font-size: 12px; fill: rgb(42, 63, 95); fill-opacity: 1; text-shadow: rgb(255, 255, 255) 1px 1px 1px, rgb(255, 255, 255) -1px -1px 1px, rgb(255, 255, 255) 1px -1px 1px, rgb(255, 255, 255) -1px 1px 1px; white-space: pre;">Main Modality: EEG</text></g><g class="sankey-node" transform="translate(0.000,357.459)" style="opacity: 1;"><rect class="node-rect" width="20" height="28.310502283105052" style="stroke-width: 0.5; stroke: rgb(0, 0, 0); stroke-opacity: 1; fill: rgb(239, 85, 59); fill-opacity: 0.8;"/><text class="node-label" data-notex="1" x="0" y="0" text-anchor="start" transform="translate(23.25,18.355251141552525)" style="cursor: default; font-family: 'Open Sans', verdana, arial, sans-serif; font-size: 12px; fill: rgb(42, 63, 95); fill-opacity: 1; text-shadow: rgb(255, 255, 255) 1px 1px 1px, rgb(255, 255, 255) -1px -1px 1px, rgb(255, 255, 255) 1px -1px 1px, rgb(255, 255, 255) -1px 1px 1px; white-space: pre;">Main Modality: MEG</text></g><g class="sankey-node" transform="translate(0.000,423.345)" style="opacity: 1;"><rect class="node-rect" width="20" height="24.06392694063925" style="stroke-width: 0.5; stroke: rgb(0, 0, 0); stroke-opacity: 1; fill: rgb(0, 204, 150); fill-opacity: 0.8;"/><text class="node-label" data-notex="1" x="0" y="0" text-anchor="start" transform="translate(23.25,16.231963470319624)" style="cursor: default; font-family: 'Open Sans', verdana, arial, sans-serif; font-size: 12px; fill: rgb(42, 63, 95); fill-opacity: 1; text-shadow: rgb(255, 255, 255) 1px 1px 1px, rgb(255, 255, 255) -1px -1px 1px, rgb(255, 255, 255) 1px -1px 1px, rgb(255, 255, 255) -1px 1px 1px; white-space: pre;">Main Modality: iEEG</text></g><g class="sankey-node" transform="translate(510.000,73.736)" style="opacity: 1;"><rect class="node-rect" width="20" height="96.96347031963467" style="stroke-width: 0.5; stroke: rgb(0, 0, 0); stroke-opacity: 1; fill: rgb(171, 99, 250); fill-opacity: 0.8;"/><text class="node-label" data-notex="1" x="0" y="0" text-anchor="start" transform="translate(23.25,52.681735159817336)" style="cursor: default; font-family: 'Open Sans', verdana, arial, sans-serif; font-size: 12px; fill: rgb(42, 63, 95); fill-opacity: 1; text-shadow: rgb(255, 255, 255) 1px 1px 1px, rgb(255, 255, 255) -1px -1px 1px, rgb(255, 255, 255) 1px -1px 1px, rgb(255, 255, 255) -1px 1px 1px; white-space: pre;">Modality of Experiment: visual</text></g><g class="sankey-node" transform="translate(510.000,294.751)" style="opacity: 1;"><rect class="node-rect" width="20" height="31.849315068492842" style="stroke-width: 0.5; stroke: rgb(0, 0, 0); stroke-opacity: 1; fill: rgb(255, 161, 90); fill-opacity: 0.8;"/><text class="node-label" data-notex="1" x="0" y="0" text-anchor="start" transform="translate(23.25,20.12465753424642)" style="cursor: default; font-family: 'Open Sans', verdana, arial, sans-serif; font-size: 12px; fill: rgb(42, 63, 95); fill-opacity: 1; text-shadow: rgb(255, 255, 255) 1px 1px 1px, rgb(255, 255, 255) -1px -1px 1px, rgb(255, 255, 255) 1px -1px 1px, rgb(255, 255, 255) -1px 1px 1px; white-space: pre;">Modality of Experiment: multisensory</text></g><g class="sankey-node" transform="translate(510.000,437.140)" style="opacity: 1;"><rect class="node-rect" width="20" height="16.986301369862872" style="stroke-width: 0.5; stroke: rgb(0, 0, 0); stroke-opacity: 1; fill: rgb(25, 211, 243); fill-opacity: 0.8;"/><text class="node-label" data-notex="1" x="0" y="0" text-anchor="start" transform="translate(23.25,12.693150684931435)" style="cursor: default; font-family: 'Open Sans', verdana, arial, sans-serif; font-size: 12px; fill: rgb(42, 63, 95); fill-opacity: 1; text-shadow: rgb(255, 255, 255) 1px 1px 1px, rgb(255, 255, 255) -1px -1px 1px, rgb(255, 255, 255) 1px -1px 1px, rgb(255, 255, 255) -1px 1px 1px; white-space: pre;">Modality of Experiment: resting state</text></g><g class="sankey-node" transform="translate(510.000,255.052)" style="opacity: 1;"><rect class="node-rect" width="20" height="2.1232876712329016" style="stroke-width: 0.5; stroke: rgb(0, 0, 0); stroke-opacity: 1; fill: rgb(255, 102, 146); fill-opacity: 0.8;"/><text class="node-label" data-notex="1" x="0" y="0" text-anchor="start" transform="translate(23.25,5.26164383561645)" style="cursor: default; font-family: 'Open Sans', verdana, arial, sans-serif; font-size: 12px; fill: rgb(42, 63, 95); fill-opacity: 1; text-shadow: rgb(255, 255, 255) 1px 1px 1px, rgb(255, 255, 255) -1px -1px 1px, rgb(255, 255, 255) 1px -1px 1px, rgb(255, 255, 255) -1px 1px 1px; white-space: pre;">Modality of Experiment: tactile</text></g><g class="sankey-node" transform="translate(510.000,364.176)" style="opacity: 1;"><rect class="node-rect" width="20" height="35.3881278538812" style="stroke-width: 0.5; stroke: rgb(0, 0, 0); stroke-opacity: 1; fill: rgb(182, 232, 128); fill-opacity: 0.8;"/><text class="node-label" data-notex="1" x="0" y="0" text-anchor="start" transform="translate(23.25,21.8940639269406)" style="cursor: default; font-family: 'Open Sans', verdana, arial, sans-serif; font-size: 12px; fill: rgb(42, 63, 95); fill-opacity: 1; text-shadow: rgb(255, 255, 255) 1px 1px 1px, rgb(255, 255, 255) -1px -1px 1px, rgb(255, 255, 255) 1px -1px 1px, rgb(255, 255, 255) -1px 1px 1px; white-space: pre;">Modality of Experiment: auditory</text></g><g class="sankey-node" transform="translate(510.000,208.275)" style="opacity: 1;"><rect class="node-rect" width="20" height="9.200913242009108" style="stroke-width: 0.5; stroke: rgb(0, 0, 0); stroke-opacity: 1; fill: rgb(255, 151, 255); fill-opacity: 0.8;"/><text class="node-label" data-notex="1" x="0" y="0" text-anchor="start" transform="translate(23.25,8.800456621004553)" style="cursor: default; font-family: 'Open Sans', verdana, arial, sans-serif; font-size: 12px; fill: rgb(42, 63, 95); fill-opacity: 1; text-shadow: rgb(255, 255, 255) 1px 1px 1px, rgb(255, 255, 255) -1px -1px 1px, rgb(255, 255, 255) 1px -1px 1px, rgb(255, 255, 255) -1px 1px 1px; white-space: pre;">Modality of Experiment: motor</text></g><g class="sankey-node" transform="translate(510.000,491.702)" style="opacity: 1;"><rect class="node-rect" width="20" height="4.954337899543361" style="stroke-width: 0.5; stroke: rgb(0, 0, 0); stroke-opacity: 1; fill: rgb(254, 203, 82); fill-opacity: 0.8;"/><text class="node-label" data-notex="1" x="0" y="0" text-anchor="start" transform="translate(23.25,6.67716894977168)" style="cursor: default; font-family: 'Open Sans', verdana, arial, sans-serif; font-size: 12px; fill: rgb(42, 63, 95); fill-opacity: 1; text-shadow: rgb(255, 255, 255) 1px 1px 1px, rgb(255, 255, 255) -1px -1px 1px, rgb(255, 255, 255) 1px -1px 1px, rgb(255, 255, 255) -1px 1px 1px; white-space: pre;">Modality of Experiment: sleep</text></g><g class="sankey-node" transform="translate(510.000,534.232)" style="opacity: 1;"><rect class="node-rect" width="20" height="3.5388127853881315" style="stroke-width: 0.5; stroke: rgb(0, 0, 0); stroke-opacity: 1; fill: rgb(99, 110, 250); fill-opacity: 0.8;"/><text class="node-label" data-notex="1" x="0" y="0" text-anchor="start" transform="translate(23.25,5.969406392694065)" style="cursor: default; font-family: 'Open Sans', verdana, arial, sans-serif; font-size: 12px; fill: rgb(42, 63, 95); fill-opacity: 1; text-shadow: rgb(255, 255, 255) 1px 1px 1px, rgb(255, 255, 255) -1px -1px 1px, rgb(255, 255, 255) 1px -1px 1px, rgb(255, 255, 255) -1px 1px 1px; white-space: pre;">Modality of Experiment: other</text></g><g class="sankey-node" transform="translate(510.000,616.461)" style="opacity: 1;"><rect class="node-rect" width="20" height="3.538812785388245" style="stroke-width: 0.5; stroke: rgb(0, 0, 0); stroke-opacity: 1; fill: rgb(239, 85, 59); fill-opacity: 0.8;"/><text class="node-label" data-notex="1" x="0" y="0" text-anchor="start" transform="translate(23.25,5.969406392694122)" style="cursor: default; font-family: 'Open Sans', verdana, arial, sans-serif; font-size: 12px; fill: rgb(42, 63, 95); fill-opacity: 1; text-shadow: rgb(255, 255, 255) 1px 1px 1px, rgb(255, 255, 255) -1px -1px 1px, rgb(255, 255, 255) 1px -1px 1px, rgb(255, 255, 255) -1px 1px 1px; white-space: pre;">Modality of Experiment: anasthesia</text></g><g class="sankey-node" transform="translate(510.000,575.347)" style="opacity: 1;"><rect class="node-rect" width="20" height="3.538812785388018" style="stroke-width: 0.5; stroke: rgb(0, 0, 0); stroke-opacity: 1; fill: rgb(0, 204, 150); fill-opacity: 0.8;"/><text class="node-label" data-notex="1" x="0" y="0" text-anchor="start" transform="translate(23.25,5.969406392694008)" style="cursor: default; font-family: 'Open Sans', verdana, arial, sans-serif; font-size: 12px; fill: rgb(42, 63, 95); fill-opacity: 1; text-shadow: rgb(255, 255, 255) 1px 1px 1px, rgb(255, 255, 255) -1px -1px 1px, rgb(255, 255, 255) 1px -1px 1px, rgb(255, 255, 255) -1px 1px 1px; white-space: pre;">Modality of Experiment: unknown</text></g><g class="sankey-node" transform="translate(1020.000,0.000)" style="opacity: 1;"><rect class="node-rect" width="20" height="14.155251141552455" style="stroke-width: 0.5; stroke: rgb(0, 0, 0); stroke-opacity: 1; fill: rgb(171, 99, 250); fill-opacity: 0.8;"/><text class="node-label" data-notex="1" x="0" y="0" text-anchor="end" transform="translate(-3.25,11.277625570776227)" style="cursor: default; font-family: 'Open Sans', verdana, arial, sans-serif; font-size: 12px; fill: rgb(42, 63, 95); fill-opacity: 1; text-shadow: rgb(255, 255, 255) 1px 1px 1px, rgb(255, 255, 255) -1px -1px 1px, rgb(255, 255, 255) 1px -1px 1px, rgb(255, 255, 255) -1px 1px 1px; white-space: pre;">Type of Experiment: motor</text></g><g class="sankey-node" transform="translate(1020.000,110.540)" style="opacity: 1;"><rect class="node-rect" width="20" height="31.849315068493127" style="stroke-width: 0.5; stroke: rgb(0, 0, 0); stroke-opacity: 1; fill: rgb(255, 161, 90); fill-opacity: 0.8;"/><text class="node-label" data-notex="1" x="0" y="0" text-anchor="end" transform="translate(-3.25,20.124657534246563)" style="cursor: default; font-family: 'Open Sans', verdana, arial, sans-serif; font-size: 12px; fill: rgb(42, 63, 95); fill-opacity: 1; text-shadow: rgb(255, 255, 255) 1px 1px 1px, rgb(255, 255, 255) -1px -1px 1px, rgb(255, 255, 255) 1px -1px 1px, rgb(255, 255, 255) -1px 1px 1px; white-space: pre;">Type of Experiment: perception</text></g><g class="sankey-node" transform="translate(1020.000,573.223)" style="opacity: 1;"><rect class="node-rect" width="20" height="6.369863013698591" style="stroke-width: 0.5; stroke: rgb(0, 0, 0); stroke-opacity: 1; fill: rgb(25, 211, 243); fill-opacity: 0.8;"/><text class="node-label" data-notex="1" x="0" y="0" text-anchor="end" transform="translate(-3.25,7.384931506849295)" style="cursor: default; font-family: 'Open Sans', verdana, arial, sans-serif; font-size: 12px; fill: rgb(42, 63, 95); fill-opacity: 1; text-shadow: rgb(255, 255, 255) 1px 1px 1px, rgb(255, 255, 255) -1px -1px 1px, rgb(255, 255, 255) 1px -1px 1px, rgb(255, 255, 255) -1px 1px 1px; white-space: pre;">Type of Experiment: resting state</text></g><g class="sankey-node" transform="translate(1020.000,318.815)" style="opacity: 1;"><rect class="node-rect" width="20" height="15.57077625570787" style="stroke-width: 0.5; stroke: rgb(0, 0, 0); stroke-opacity: 1; fill: rgb(255, 102, 146); fill-opacity: 0.8;"/><text class="node-label" data-notex="1" x="0" y="0" text-anchor="end" transform="translate(-3.25,11.985388127853934)" style="cursor: default; font-family: 'Open Sans', verdana, arial, sans-serif; font-size: 12px; fill: rgb(42, 63, 95); fill-opacity: 1; text-shadow: rgb(255, 255, 255) 1px 1px 1px, rgb(255, 255, 255) -1px -1px 1px, rgb(255, 255, 255) 1px -1px 1px, rgb(255, 255, 255) -1px 1px 1px; white-space: pre;">Type of Experiment: learning</text></g><g class="sankey-node" transform="translate(1020.000,245.851)" style="opacity: 1;"><rect class="node-rect" width="20" height="35.3881278538812" style="stroke-width: 0.5; stroke: rgb(0, 0, 0); stroke-opacity: 1; fill: rgb(182, 232, 128); fill-opacity: 0.8;"/><text class="node-label" data-notex="1" x="0" y="0" text-anchor="end" transform="translate(-3.25,21.8940639269406)" style="cursor: default; font-family: 'Open Sans', verdana, arial, sans-serif; font-size: 12px; fill: rgb(42, 63, 95); fill-opacity: 1; text-shadow: rgb(255, 255, 255) 1px 1px 1px, rgb(255, 255, 255) -1px -1px 1px, rgb(255, 255, 255) 1px -1px 1px, rgb(255, 255, 255) -1px 1px 1px; white-space: pre;">Type of Experiment: attention</text></g><g class="sankey-node" transform="translate(1020.000,426.523)" style="opacity: 1;"><rect class="node-rect" width="20" height="19.817351598173445" style="stroke-width: 0.5; stroke: rgb(0, 0, 0); stroke-opacity: 1; fill: rgb(255, 151, 255); fill-opacity: 0.8;"/><text class="node-label" data-notex="1" x="0" y="0" text-anchor="end" transform="translate(-3.25,14.108675799086722)" style="cursor: default; font-family: 'Open Sans', verdana, arial, sans-serif; font-size: 12px; fill: rgb(42, 63, 95); fill-opacity: 1; text-shadow: rgb(255, 255, 255) 1px 1px 1px, rgb(255, 255, 255) -1px -1px 1px, rgb(255, 255, 255) 1px -1px 1px, rgb(255, 255, 255) -1px 1px 1px; white-space: pre;">Type of Experiment: clinical/intervention</text></g><g class="sankey-node" transform="translate(1020.000,51.731)" style="opacity: 1;"><rect class="node-rect" width="20" height="21.232876712328675" style="stroke-width: 0.5; stroke: rgb(0, 0, 0); stroke-opacity: 1; fill: rgb(254, 203, 82); fill-opacity: 0.8;"/><text class="node-label" data-notex="1" x="0" y="0" text-anchor="end" transform="translate(-3.25,14.816438356164337)" style="cursor: default; font-family: 'Open Sans', verdana, arial, sans-serif; font-size: 12px; fill: rgb(42, 63, 95); fill-opacity: 1; text-shadow: rgb(255, 255, 255) 1px 1px 1px, rgb(255, 255, 255) -1px -1px 1px, rgb(255, 255, 255) 1px -1px 1px, rgb(255, 255, 255) -1px 1px 1px; white-space: pre;">Type of Experiment: memory</text></g><g class="sankey-node" transform="translate(1020.000,371.961)" style="opacity: 1;"><rect class="node-rect" width="20" height="16.9863013698631" style="stroke-width: 0.5; stroke: rgb(0, 0, 0); stroke-opacity: 1; fill: rgb(99, 110, 250); fill-opacity: 0.8;"/><text class="node-label" data-notex="1" x="0" y="0" text-anchor="end" transform="translate(-3.25,12.693150684931549)" style="cursor: default; font-family: 'Open Sans', verdana, arial, sans-serif; font-size: 12px; fill: rgb(42, 63, 95); fill-opacity: 1; text-shadow: rgb(255, 255, 255) 1px 1px 1px, rgb(255, 255, 255) -1px -1px 1px, rgb(255, 255, 255) 1px -1px 1px, rgb(255, 255, 255) -1px 1px 1px; white-space: pre;">Type of Experiment: affect</text></g><g class="sankey-node" transform="translate(1020.000,179.965)" style="opacity: 1;"><rect class="node-rect" width="20" height="28.310502283105052" style="stroke-width: 0.5; stroke: rgb(0, 0, 0); stroke-opacity: 1; fill: rgb(239, 85, 59); fill-opacity: 0.8;"/><text class="node-label" data-notex="1" x="0" y="0" text-anchor="end" transform="translate(-3.25,18.355251141552525)" style="cursor: default; font-family: 'Open Sans', verdana, arial, sans-serif; font-size: 12px; fill: rgb(42, 63, 95); fill-opacity: 1; text-shadow: rgb(255, 255, 255) 1px 1px 1px, rgb(255, 255, 255) -1px -1px 1px, rgb(255, 255, 255) 1px -1px 1px, rgb(255, 255, 255) -1px 1px 1px; white-space: pre;">Type of Experiment: decision-making</text></g><g class="sankey-node" transform="translate(1020.000,617.169)" style="opacity: 1;"><rect class="node-rect" width="20" height="2.8310502283104597" style="stroke-width: 0.5; stroke: rgb(0, 0, 0); stroke-opacity: 1; fill: rgb(0, 204, 150); fill-opacity: 0.8;"/><text class="node-label" data-notex="1" x="0" y="0" text-anchor="end" transform="translate(-3.25,5.615525114155229)" style="cursor: default; font-family: 'Open Sans', verdana, arial, sans-serif; font-size: 12px; fill: rgb(42, 63, 95); fill-opacity: 1; text-shadow: rgb(255, 255, 255) 1px 1px 1px, rgb(255, 255, 255) -1px -1px 1px, rgb(255, 255, 255) 1px -1px 1px, rgb(255, 255, 255) -1px 1px 1px; white-space: pre;">Type of Experiment: sleep</text></g><g class="sankey-node" transform="translate(1020.000,483.917)" style="opacity: 1;"><rect class="node-rect" width="20" height="8.493150684931493" style="stroke-width: 0.5; stroke: rgb(0, 0, 0); stroke-opacity: 1; fill: rgb(171, 99, 250); fill-opacity: 0.8;"/><text class="node-label" data-notex="1" x="0" y="0" text-anchor="end" transform="translate(-3.25,8.446575342465746)" style="cursor: default; font-family: 'Open Sans', verdana, arial, sans-serif; font-size: 12px; fill: rgb(42, 63, 95); fill-opacity: 1; text-shadow: rgb(255, 255, 255) 1px 1px 1px, rgb(255, 255, 255) -1px -1px 1px, rgb(255, 255, 255) 1px -1px 1px, rgb(255, 255, 255) -1px 1px 1px; white-space: pre;">Type of Experiment: other</text></g><g class="sankey-node" transform="translate(1020.000,529.985)" style="opacity: 1;"><rect class="node-rect" width="20" height="5.662100456621033" style="stroke-width: 0.5; stroke: rgb(0, 0, 0); stroke-opacity: 1; fill: rgb(255, 161, 90); fill-opacity: 0.8;"/><text class="node-label" data-notex="1" x="0" y="0" text-anchor="end" transform="translate(-3.25,7.031050228310516)" style="cursor: default; font-family: 'Open Sans', verdana, arial, sans-serif; font-size: 12px; fill: rgb(42, 63, 95); fill-opacity: 1; text-shadow: rgb(255, 255, 255) 1px 1px 1px, rgb(255, 255, 255) -1px -1px 1px, rgb(255, 255, 255) 1px -1px 1px, rgb(255, 255, 255) -1px 1px 1px; white-space: pre;">Type of Experiment: unknown</text></g></g></g><defs id="topdefs-0dace8"><g class="clips"/></defs><g class="layer-above"><g class="imagelayer"/><g class="shapelayer"/></g><g class="infolayer"><g class="g-gtitle"/><g class="first-render"/></g></svg>