<svg class="main-svg" xmlns="http://www.w3.org/2000/svg" xmlns:xlink="http://www.w3.org/1999/xlink" width="1400" height="800" style="" viewBox="0 0 1400 800"><rect x="0" y="0" width="1400" height="800" style="fill: rgb(255, 255, 255); fill-opacity: 1;"/><defs id="defs-a25f70"><g class="clips"><clipPath id="clipa25f70xyplot" class="plotclip"><rect width="1182" height="620"/></clipPath><clipPath class="axesclip" id="clipa25f70x"><rect x="80" y="0" width="1182" height="800"/></clipPath><clipPath class="axesclip" id="clipa25f70y"><rect x="0" y="100" width="1400" height="620"/></clipPath><clipPath class="axesclip" id="clipa25f70xy"><rect x="80" y="100" width="1182" height="620"/></clipPath></g><g class="gradients"/><g class="patterns"/></defs><g class="bglayer"><rect class="bg" x="80" y="100" width="1182" height="620" style="fill: rgb(229, 236, 246); fill-opacity: 1; stroke-width: 0;"/></g><g class="layer-below"><g class="imagelayer"/><g class="shapelayer"/></g><g class="cartesianlayer"><g class="subplot xy"><g class="layer-subplot"><g class="shapelayer"/><g class="imagelayer"/></g><g class="minor-gridlayer"><g class="x"/><g class="y"/></g><g class="gridlayer"><g class="x"><path class="xgrid crisp" transform="translate(222.17,0)" d="M0,100v620" style="stroke: rgb(255, 255, 255); stroke-opacity: 1; stroke-width: 1px;"/><path class="xgrid crisp" transform="translate(409.8,0)" d="M0,100v620" style="stroke: rgb(255, 255, 255); stroke-opacity: 1; stroke-width: 1px;"/><path class="xgrid crisp" transform="translate(597.94,0)" d="M0,100v620" style="stroke: rgb(255, 255, 255); stroke-opacity: 1; stroke-width: 1px;"/><path class="xgrid crisp" transform="translate(785.57,0)" d="M0,100v620" style="stroke: rgb(255, 255, 255); stroke-opacity: 1; stroke-width: 1px;"/><path class="xgrid crisp" transform="translate(973.2,0)" d="M0,100v620" style="stroke: rgb(255, 255, 255); stroke-opacity: 1; stroke-width: 1px;"/><path class="xgrid crisp" transform="translate(1160.83,0)" d="M0,100v620" style="stroke: rgb(255, 255, 255); stroke-opacity: 1; stroke-width: 1px;"/></g><g class="y"><path class="ygrid crisp" transform="translate(0,564.15)" d="M80,0h1182" style="stroke: rgb(255, 255, 255); stroke-opacity: 1; stroke-width: 1px;"/><path class="ygrid crisp" transform="translate(0,436.75)" d="M80,0h1182" style="stroke: rgb(255, 255, 255); stroke-opacity: 1; stroke-width: 1px;"/><path class="ygrid crisp" transform="translate(0,309.36)" d="M80,0h1182" style="stroke: rgb(255, 255, 255); stroke-opacity: 1; stroke-width: 1px;"/><path class="ygrid crisp" transform="translate(0,181.95999999999998)" d="M80,0h1182" style="stroke: rgb(255, 255, 255); stroke-opacity: 1; stroke-width: 1px;"/></g></g><g class="zerolinelayer"><path class="yzl zl crisp" transform="translate(0,691.55)" d="M80,0h1182" style="stroke: rgb(255, 255, 255); stroke-opacity: 1; stroke-width: 2px;"/></g><g class="layer-between"><g class="shapelayer"/><g class="imagelayer"/></g><path class="xlines-below"/><path class="ylines-below"/><g class="overlines-below"/><g class="xaxislayer-below"/><g class="yaxislayer-below"/><g class="overaxes-below"/><g class="overplot"><g class="xy" transform="translate(80,100)" clip-path="url(#clipa25f70xyplot)"><g class="scatterlayer mlayer"><g class="trace scatter trace65d3fc" style="stroke-miterlimit: 2; opacity: 1;"><g class="fills"/><g class="errorbars"/><g class="lines"><path class="js-line" d="M176.2,589L176.63,583.9L217.99,581.36L223.29,578.81L251.98,576.26L262.24,573.71L263.21,571.16L283.65,568.62L315.72,566.07L315.72,563.52L356.43,560.97L380.71,555.88L380.71,553.33L387.35,550.78L388.73,548.23L388.8,535.49L394.69,532.95L422.83,530.4L427.98,527.85L432.03,525.3L432.03,522.75L448.56,520.21L470.76,517.66L476.83,515.11L476.83,512.56L492.39,510.01L497.57,507.47L506.09,504.92L506.1,502.37L519.97,499.82L527.1,497.27L536.36,492.18L536.4,489.63L541.46,481.99L541.97,479.44L543.61,474.34L545.12,471.79L547.01,469.25L550.87,466.7L553.58,464.15L558.21,461.6L561.41,459.05L572.85,456.51L574.02,453.96L589.74,451.41L589.77,448.86L600.37,446.32L603.13,443.77L616.09,441.22L617.06,438.67L622.29,436.12L630.59,433.58L635.5,431.03L636.47,428.48L638.91,425.93L639.52,423.38L651.5,420.84L652.92,418.29L655.42,415.74L657.17,413.19L657.17,410.64L657.61,403L658.35,400.45L667.83,397.9L668.23,395.36L679.99,392.81L680.01,390.26L681.68,387.71L707,385.16L715.63,382.62L717.8,380.07L717.8,377.52L718.84,374.97L725.77,369.88L726.09,367.33L728.75,364.78L728.81,362.23L733.4,359.68L733.91,357.14L742.53,354.59L744.68,352.04L758.9,346.95L766.67,344.4L769.29,341.85L769.29,339.3L769.61,326.56L770.1,324.01L774.82,321.47L786.6,318.92L789.54,316.37L790.21,313.82L790.27,311.27L791.4,308.73L791.64,306.18L804.01,303.63L822.98,298.53L833.84,295.99L836.97,293.44L853.46,290.89L859.38,288.34L859.63,285.79L876.09,283.25L877.44,280.7L884.73,273.05L884.74,270.51L884.81,267.96L903.29,265.41L905.49,262.86L905.8,260.32L906.16,252.67L910.37,250.12L913.08,245.03L917.35,242.48L917.55,239.93L925.1,237.38L927.01,232.29L931.59,229.74L932.08,227.19L938.8,224.64L940.3,222.1L950.09,219.55L952.46,217L952.56,214.45L956.44,211.9L967.07,209.36L967.58,201.71L967.58,199.16L970.88,196.62L971.07,194.07L974.36,191.52L975.39,188.97L977.06,186.42L977.44,183.88L988.31,181.33L991.85,178.78L1000.46,173.68L1002.04,171.14L1004.3,166.04L1004.6,163.49L1004.6,160.95L1005.52,158.4L1024.63,153.3L1024.96,150.75L1034.35,145.66L1039.47,143.11L1046.39,138.01L1046.39,135.47L1048.54,132.92L1055.6,130.37L1056.03,125.27L1056.05,122.73L1056.05,120.18L1061.16,117.63L1074.88,115.08L1074.98,112.53L1075.44,109.99L1097.89,107.44L1105.73,99.79L1105.73,97.25L1110.77,92.15L1116.82,89.6L1121.84,87.05L1123.52,84.51L1124.4,81.96L1132.18,79.41L1136.51,76.86L1137.33,74.32L1140.58,71.77L1142.43,69.22L1143.96,66.67L1148.06,64.12L1154.69,61.58L1155.03,59.03L1161.33,51.38L1167.58,48.84L1173.09,43.74L1173.34,41.19L1175.7,38.64L1176.1,36.1L1177.68,33.55L1182,31" style="vector-effect: none; fill: none; stroke: rgb(99, 110, 250); stroke-opacity: 1; stroke-width: 2px; opacity: 1;"/></g><g class="points"/><g class="text"/></g><g class="trace scatter tracec7cfac" style="stroke-miterlimit: 2; opacity: 1;"><g class="fills"/><g class="errorbars"/><g class="lines"><path class="js-line" d="M0,589L0.17,581.36L234.06,578.81L354.91,576.26L399.35,573.71L454.87,571.16L458.49,568.62L488.06,566.07L496.79,563.52L496.79,560.97L501.95,558.42L587.5,550.78L589.77,548.23L607.04,543.14L617.41,540.59L725.17,538.04L757.26,535.49L768.07,530.4L815.46,527.85L843.68,525.3L849.32,522.75L865.68,520.21L877.13,517.66L895.56,515.11L904.82,512.56L1050.42,507.47L1075.54,504.92L1114.63,502.37L1132.02,499.82L1162.78,497.27L1164.96,494.73L1171.65,492.18L1171.95,489.63" style="vector-effect: none; fill: none; stroke: rgb(239, 85, 59); stroke-opacity: 1; stroke-width: 2px; opacity: 1;"/></g><g class="points"/><g class="text"/></g><g class="trace scatter trace667824" style="stroke-miterlimit: 2; opacity: 1;"><g class="fills"/><g class="errorbars"/><g class="lines"><path class="js-line" d="M401.1,589L492.12,583.9L502.97,581.36L602.16,576.26L602.16,573.71L607.28,571.16L666.24,568.62L669.34,566.07L801.52,563.52L816.48,560.97L912.75,558.42L920.86,555.88L942.79,553.33L1001.85,545.68L1010.18,543.14L1011.2,540.59L1024.63,538.04L1029.33,535.49L1038.65,532.95L1043.31,530.4L1060.87,527.85L1064.31,525.3L1096.03,522.75L1109.64,520.21L1114.08,517.66L1115.17,515.11L1129.11,512.56L1132.71,510.01L1149.57,507.47L1154.06,504.92" style="vector-effect: none; fill: none; stroke: rgb(0, 204, 150); stroke-opacity: 1; stroke-width: 2px; opacity: 1;"/></g><g class="points"/><g class="text"/></g></g></g></g><path class="xlines-above crisp" d="M0,0" style="fill: none;"/><path class="ylines-above crisp" d="M0,0" style="fill: none;"/><g class="overlines-above"/><g class="xaxislayer-above"><g class="xtick"><text text-anchor="middle" x="0" y="739" transform="translate(222.17,0)" style="font-family: Arial; font-size: 18px; fill: rgb(42, 63, 95); fill-opacity: 1; white-space: pre; opacity: 1;">2019</text></g><g class="xtick"><text text-anchor="middle" x="0" y="739" style="font-family: Arial; font-size: 18px; fill: rgb(42, 63, 95); fill-opacity: 1; white-space: pre; opacity: 1;" transform="translate(409.8,0)">2020</text></g><g class="xtick"><text text-anchor="middle" x="0" y="739" style="font-family: Arial; font-size: 18px; fill: rgb(42, 63, 95); fill-opacity: 1; white-space: pre; opacity: 1;" transform="translate(597.94,0)">2021</text></g><g class="xtick"><text text-anchor="middle" x="0" y="739" style="font-family: Arial; font-size: 18px; fill: rgb(42, 63, 95); fill-opacity: 1; white-space: pre; opacity: 1;" transform="translate(785.57,0)">2022</text></g><g class="xtick"><text text-anchor="middle" x="0" y="739" style="font-family: Arial; font-size: 18px; fill: rgb(42, 63, 95); fill-opacity: 1; white-space: pre; opacity: 1;" transform="translate(973.2,0)">2023</text></g><g class="xtick"><text text-anchor="middle" x="0" y="739" style="font-family: Arial; font-size: 18px; fill: rgb(42, 63, 95); fill-opacity: 1; white-space: pre; opacity: 1;" transform="translate(1160.83,0)">2024</text></g></g><g class="yaxislayer-above"><g class="ytick"><text text-anchor="end" x="79" y="6.3" transform="translate(0,691.55)" style="font-family: Arial; font-size: 18px; fill: rgb(42, 63, 95); fill-opacity: 1; white-space: pre; opacity: 1;">0</text></g><g class="ytick"><text text-anchor="end" x="79" y="6.3" style="font-family: Arial; font-size: 18px; fill: rgb(42, 63, 95); fill-opacity: 1; white-space: pre; opacity: 1;" transform="translate(0,564.15)">50</text></g><g class="ytick"><text text-anchor="end" x="79" y="6.3" style="font-family: Arial; font-size: 18px; fill: rgb(42, 63, 95); fill-opacity: 1; white-space: pre; opacity: 1;" transform="translate(0,436.75)">100</text></g><g class="ytick"><text text-anchor="end" x="79" y="6.3" style="font-family: Arial; font-size: 18px; fill: rgb(42, 63, 95); fill-opacity: 1; white-space: pre; opacity: 1;" transform="translate(0,309.36)">150</text></g><g class="ytick"><text text-anchor="end" x="79" y="6.3" style="font-family: Arial; font-size: 18px; fill: rgb(42, 63, 95); fill-opacity: 1; white-space: pre; opacity: 1;" transform="translate(0,181.95999999999998)">200</text></g></g><g class="overaxes-above"/></g></g><g class="polarlayer"/><g class="smithlayer"/><g class="ternarylayer"/><g class="geolayer"/><g class="funnelarealayer"/><g class="pielayer"/><g class="iciclelayer"/><g class="treemaplayer"/><g class="sunburstlayer"/><g class="glimages"/><defs id="topdefs-a25f70"><g class="clips"/><clipPath id="legenda25f70"><rect width="102" height="113" x="0" y="0"/></clipPath></defs><g class="layer-above"><g class="imagelayer"/><g class="shapelayer"/></g><g class="infolayer"><g class="legend" pointer-events="all" transform="translate(1285.64,100)"><rect class="bg" shape-rendering="crispEdges" style="stroke: rgb(68, 68, 68); stroke-opacity: 1; fill: rgb(255, 255, 255); fill-opacity: 1; stroke-width: 0px;" width="102" height="113" x="0" y="0"/><g class="scrollbox" transform="" clip-path="url(#legenda25f70)"><g class="groups"><g class="traces" transform="translate(0,22.1)" style="opacity: 1;"><text class="legendtext" text-anchor="start" x="40" y="9.360000000000001" style="font-family: Arial; font-size: 24px; fill: rgb(42, 63, 95); fill-opacity: 1; white-space: pre;">EEG</text><g class="layers" style="opacity: 1;"><g class="legendfill"/><g class="legendlines"><path class="js-line" d="M5,0h30" style="fill: none; stroke: rgb(99, 110, 250); stroke-opacity: 1; stroke-width: 2px;"/></g><g class="legendsymbols"><g class="legendpoints"/></g></g><rect class="legendtoggle" x="0" y="-17.1" width="96.015625" height="34.2" style="fill: rgb(0, 0, 0); fill-opacity: 0;"/></g><g class="traces" transform="translate(0,56.300000000000004)" style="opacity: 1;"><text class="legendtext" text-anchor="start" x="40" y="9.360000000000001" style="font-family: Arial; font-size: 24px; fill: rgb(42, 63, 95); fill-opacity: 1; white-space: pre;">MEG</text><g class="layers" style="opacity: 1;"><g class="legendfill"/><g class="legendlines"><path class="js-line" d="M5,0h30" style="fill: none; stroke: rgb(239, 85, 59); stroke-opacity: 1; stroke-width: 2px;"/></g><g class="legendsymbols"><g class="legendpoints"/></g></g><rect class="legendtoggle" x="0" y="-17.1" width="96.015625" height="34.2" style="fill: rgb(0, 0, 0); fill-opacity: 0;"/></g><g class="traces" transform="translate(0,90.5)" style="opacity: 1;"><text class="legendtext" text-anchor="start" x="40" y="9.360000000000001" style="font-family: Arial; font-size: 24px; fill: rgb(42, 63, 95); fill-opacity: 1; white-space: pre;">iEEG</text><g class="layers" style="opacity: 1;"><g class="legendfill"/><g class="legendlines"><path class="js-line" d="M5,0h30" style="fill: none; stroke: rgb(0, 204, 150); stroke-opacity: 1; stroke-width: 2px;"/></g><g class="legendsymbols"><g class="legendpoints"/></g></g><rect class="legendtoggle" x="0" y="-17.1" width="96.015625" height="34.2" style="fill: rgb(0, 0, 0); fill-opacity: 0;"/></g></g></g><rect class="scrollbar" rx="20" ry="3" width="0" height="0" style="fill: rgb(128, 139, 164); fill-opacity: 1;" x="0" y="0"/></g><g class="g-gtitle"><text class="gtitle" x="700" y="50" text-anchor="middle" dy="0em" style="opacity: 1; font-family: Arial; font-size: 36px; fill: rgb(42, 63, 95); fill-opacity: 1; white-space: pre;">Dataset Publications Over Time for Primary Modalities</text></g><g class="g-xtitle"><text class="xtitle" x="671" y="774.3" text-anchor="middle" style="opacity: 1; font-family: Arial; font-size: 24px; fill: rgb(42, 63, 95); fill-opacity: 1; white-space: pre;">Published Date</text></g><g class="g-ytitle"><text class="ytitle" transform="rotate(-90,26.053125,410)" x="26.053125" y="410" text-anchor="middle" style="opacity: 1; font-family: Arial; font-size: 24px; fill: rgb(42, 63, 95); fill-opacity: 1; white-space: pre;">Number of Publications</text></g></g></svg>