<svg class="main-svg" xmlns="http://www.w3.org/2000/svg" xmlns:xlink="http://www.w3.org/1999/xlink" width="1400" height="600" style="" viewBox="0 0 1400 600"><rect x="0" y="0" width="1400" height="600" style="fill: rgb(255, 255, 255); fill-opacity: 1;"/><defs id="defs-7badb3"><g class="clips"><clipPath id="clip7badb3xyplot" class="plotclip"><rect width="542.7" height="420"/></clipPath><clipPath id="clip7badb3x2y2plot" class="plotclip"><rect width="542.6999999999999" height="420"/></clipPath><clipPath class="axesclip" id="clip7badb3x"><rect x="80" y="0" width="542.7" height="600"/></clipPath><clipPath class="axesclip" id="clip7badb3y"><rect x="0" y="100" width="1400" height="420"/></clipPath><clipPath class="axesclip" id="clip7badb3xy"><rect x="80" y="100" width="542.7" height="420"/></clipPath><clipPath class="axesclip" id="clip7badb3y2"><rect x="0" y="100" width="1400" height="420"/></clipPath><clipPath class="axesclip" id="clip7badb3xy2"><rect x="80" y="100" width="542.7" height="420"/></clipPath><clipPath class="axesclip" id="clip7badb3x2"><rect x="743.3000000000001" y="0" width="542.6999999999999" height="600"/></clipPath><clipPath class="axesclip" id="clip7badb3x2y"><rect x="743.3000000000001" y="100" width="542.6999999999999" height="420"/></clipPath><clipPath class="axesclip" id="clip7badb3x2y2"><rect x="743.3000000000001" y="100" width="542.6999999999999" height="420"/></clipPath></g><g class="gradients"/><g class="patterns"/></defs><g class="bglayer"><rect class="bg" x="80" y="100" width="542.7" height="420" style="fill: rgb(229, 236, 246); fill-opacity: 1; stroke-width: 0;"/><rect class="bg" x="743.3000000000001" y="100" width="542.6999999999999" height="420" style="fill: rgb(229, 236, 246); fill-opacity: 1; stroke-width: 0;"/></g><g class="layer-below"><g class="imagelayer"/><g class="shapelayer"/></g><g class="cartesianlayer"><g class="subplot xy"><g class="layer-subplot"><g class="shapelayer"/><g class="imagelayer"/></g><g class="minor-gridlayer"><g class="x"/><g class="y"/></g><g class="gridlayer"><g class="x"><path class="xgrid crisp" transform="translate(155.38,0)" d="M0,100v420" style="stroke: rgb(255, 255, 255); stroke-opacity: 1; stroke-width: 1px;"/><path class="xgrid crisp" transform="translate(291.97,0)" d="M0,100v420" style="stroke: rgb(255, 255, 255); stroke-opacity: 1; stroke-width: 1px;"/><path class="xgrid crisp" transform="translate(428.55,0)" d="M0,100v420" style="stroke: rgb(255, 255, 255); stroke-opacity: 1; stroke-width: 1px;"/><path class="xgrid crisp" transform="translate(565.14,0)" d="M0,100v420" style="stroke: rgb(255, 255, 255); stroke-opacity: 1; stroke-width: 1px;"/></g><g class="y"><path class="ygrid crisp" transform="translate(0,414.42)" d="M80,0h542.7" style="stroke: rgb(255, 255, 255); stroke-opacity: 1; stroke-width: 1px;"/><path class="ygrid crisp" transform="translate(0,328.12)" d="M80,0h542.7" style="stroke: rgb(255, 255, 255); stroke-opacity: 1; stroke-width: 1px;"/><path class="ygrid crisp" transform="translate(0,241.82)" d="M80,0h542.7" style="stroke: rgb(255, 255, 255); stroke-opacity: 1; stroke-width: 1px;"/><path class="ygrid crisp" transform="translate(0,155.52)" d="M80,0h542.7" style="stroke: rgb(255, 255, 255); stroke-opacity: 1; stroke-width: 1px;"/></g></g><g class="zerolinelayer"><path class="yzl zl crisp" transform="translate(0,500.73)" d="M80,0h542.7" style="stroke: rgb(255, 255, 255); stroke-opacity: 1; stroke-width: 2px;"/></g><g class="layer-between"><g class="shapelayer"/><g class="imagelayer"/></g><path class="xlines-below"/><path class="ylines-below"/><g class="overlines-below"/><g class="xaxislayer-below"/><g class="yaxislayer-below"/><g class="overaxes-below"/><g class="overplot"><g class="xy" transform="translate(80,100)" clip-path="url(#clip7badb3xyplot)"><g class="scatterlayer mlayer"><g class="trace scatter trace6c0331" style="stroke-miterlimit: 2; opacity: 1;"><g class="fills"/><g class="errorbars"/><g class="lines"><path class="js-line" d="M80.9,399L81.1,395.55L100.09,393.82L102.52,392.1L115.69,390.37L120.41,388.64L120.85,386.92L130.23,385.19L144.96,383.47L144.96,381.74L163.65,380.01L174.8,376.56L174.8,374.84L177.85,373.11L178.48,371.38L178.51,362.75L181.22,361.03L194.14,359.3L196.5,357.58L198.36,355.85L198.36,354.12L216.14,350.67L218.93,348.95L218.93,347.22L226.08,345.49L228.45,343.77L232.37,342.04L232.37,340.32L238.74,338.59L244.12,335.14L246.26,333.41L246.99,329.96L247.89,328.23L248.84,324.78L249.07,323.05L251.15,317.88L252.93,316.15L256.29,312.7L257.76,310.97L263.02,309.25L263.55,307.52L270.77,305.79L270.79,304.07L275.65,302.34L276.92,300.62L282.87,298.89L283.31,297.16L285.72,295.44L289.53,293.71L291.78,291.99L292.23,290.26L293.63,286.81L299.13,285.08L301.73,278.18L301.73,276.45L302.27,271.27L306.62,269.55L306.81,267.82L312.21,266.1L312.22,264.37L312.99,262.64L324.61,260.92L328.57,259.19L329.57,257.47L329.57,255.74L330.05,254.01L331.47,252.29L333.23,250.56L333.38,248.84L334.6,247.11L334.62,245.38L336.73,243.66L336.97,241.93L340.92,240.21L341.91,238.48L352,233.3L353.21,231.58L353.58,219.49L355.75,217.77L361.16,216.04L362.51,214.32L363.47,207.41L369.15,205.68L377.86,202.23L382.85,200.51L384.29,198.78L391.86,197.05L394.57,195.33L394.69,193.6L402.24,191.88L402.87,190.15L406.21,184.97L406.22,183.25L406.25,181.52L414.74,179.79L415.75,178.07L415.89,176.34L416.05,171.16L417.99,169.44L419.23,165.99L421.19,164.26L421.28,162.53L424.75,160.81L425.62,157.36L427.73,155.63L427.95,153.9L431.04,152.18L431.73,150.45L436.22,148.73L437.31,147L437.35,145.27L439.14,143.55L444.02,141.82L444.25,134.92L445.77,133.19L445.86,131.47L447.37,129.74L448.78,124.56L453.77,122.84L460.07,115.93L460.6,114.21L461.25,110.75L461.25,109.03L461.67,107.3L465.49,105.58L470.45,103.85L470.6,102.12L477.26,96.95L478.89,95.22L480.43,93.49L480.43,91.77L481.42,90.04L484.67,88.32L484.87,81.41L487.22,79.68L493.52,77.96L493.56,76.23L493.78,74.51L504.08,72.78L507.68,67.6L507.68,65.88L510,62.42L512.77,60.7L515.08,58.97L515.85,57.25L516.25,55.52L519.82,53.79L521.81,52.07L522.19,50.34L524.53,46.89L525.24,45.16L527.12,43.44L530.16,41.71L530.32,39.99L531.25,38.26L533.21,34.81L536.08,33.08L538.61,29.63L538.73,27.9L539.81,26.18L539.99,24.45L540.71,22.73L542.7,21" style="vector-effect: none; fill: none; stroke: rgb(99, 110, 250); stroke-opacity: 1; stroke-width: 2px; opacity: 1;"/></g><g class="points"/><g class="text"/></g><g class="trace scatter trace7b33c7" style="stroke-miterlimit: 2; opacity: 1;"><g class="fills"/><g class="errorbars"/><g class="lines"><path class="js-line" d="M0,399L0.08,393.82L107.47,392.1L162.95,390.37L183.35,388.64L208.85,386.92L210.51,385.19L224.09,383.47L228.1,381.74L228.1,380.01L230.47,378.29L269.74,373.11L270.79,371.38L283.48,366.21L332.95,364.48L347.68,362.75L350.35,361.03L352.65,359.3L374.41,357.58L387.37,355.85L389.95,354.12L411.18,348.95L415.44,347.22L482.29,343.77L493.82,342.04L511.77,340.32L519.75,338.59L533.87,336.86L534.88,335.14L537.95,333.41L538.08,331.68" style="vector-effect: none; fill: none; stroke: rgb(239, 85, 59); stroke-opacity: 1; stroke-width: 2px; opacity: 1;"/></g><g class="points"/><g class="text"/></g><g class="trace scatter trace9b78cb" style="stroke-miterlimit: 2; opacity: 1;"><g class="fills"/><g class="errorbars"/><g class="lines"><path class="js-line" d="M184.16,399L225.95,395.55L230.93,393.82L276.47,390.37L276.47,388.64L278.82,386.92L305.9,385.19L307.32,383.47L368.01,381.74L374.87,380.01L419.08,378.29L422.8,376.56L432.87,374.84L459.99,369.66L463.81,367.93L464.28,366.21L470.45,364.48L472.61,362.75L476.88,361.03L479.02,359.3L487.08,357.58L488.67,355.85L503.23,354.12L509.48,352.4L511.52,350.67L512.02,348.95L518.42,347.22L520.07,345.49L527.81,343.77L529.87,342.04" style="vector-effect: none; fill: none; stroke: rgb(0, 204, 150); stroke-opacity: 1; stroke-width: 2px; opacity: 1;"/></g><g class="points"/><g class="text"/></g></g></g></g><g class="zerolinelayer-above"/><path class="xlines-above crisp" d="M0,0" style="fill: none;"/><path class="ylines-above crisp" d="M0,0" style="fill: none;"/><g class="overlines-above"/><g class="xaxislayer-above"><g class="xtick"><text text-anchor="middle" x="0" y="535" transform="translate(155.38,0)" style="font-family: Arial; font-size: 14px; fill: rgb(42, 63, 95); fill-opacity: 1; white-space: pre;">1.55×10​<tspan style="font-size:70%" dy="-0.6em">18</tspan><tspan dy="0.42em">​</tspan></text></g><g class="xtick"><text text-anchor="middle" x="0" y="535" style="font-family: Arial; font-size: 14px; fill: rgb(42, 63, 95); fill-opacity: 1; white-space: pre;" transform="translate(291.97,0)">1.6×10​<tspan style="font-size:70%" dy="-0.6em">18</tspan><tspan dy="0.42em">​</tspan></text></g><g class="xtick"><text text-anchor="middle" x="0" y="535" style="font-family: Arial; font-size: 14px; fill: rgb(42, 63, 95); fill-opacity: 1; white-space: pre;" transform="translate(428.55,0)">1.65×10​<tspan style="font-size:70%" dy="-0.6em">18</tspan><tspan dy="0.42em">​</tspan></text></g><g class="xtick"><text text-anchor="middle" x="0" y="535" style="font-family: Arial; font-size: 14px; fill: rgb(42, 63, 95); fill-opacity: 1; white-space: pre;" transform="translate(565.14,0)">1.7×10​<tspan style="font-size:70%" dy="-0.6em">18</tspan><tspan dy="0.42em">​</tspan></text></g></g><g class="yaxislayer-above"><g class="ytick"><text text-anchor="end" x="79" y="4.8999999999999995" transform="translate(0,500.73)" style="font-family: Arial; font-size: 14px; fill: rgb(42, 63, 95); fill-opacity: 1; white-space: pre;">0</text></g><g class="ytick"><text text-anchor="end" x="79" y="4.8999999999999995" style="font-family: Arial; font-size: 14px; fill: rgb(42, 63, 95); fill-opacity: 1; white-space: pre;" transform="translate(0,414.42)">50</text></g><g class="ytick"><text text-anchor="end" x="79" y="4.8999999999999995" style="font-family: Arial; font-size: 14px; fill: rgb(42, 63, 95); fill-opacity: 1; white-space: pre;" transform="translate(0,328.12)">100</text></g><g class="ytick"><text text-anchor="end" x="79" y="4.8999999999999995" style="font-family: Arial; font-size: 14px; fill: rgb(42, 63, 95); fill-opacity: 1; white-space: pre;" transform="translate(0,241.82)">150</text></g><g class="ytick"><text text-anchor="end" x="79" y="4.8999999999999995" style="font-family: Arial; font-size: 14px; fill: rgb(42, 63, 95); fill-opacity: 1; white-space: pre;" transform="translate(0,155.52)">200</text></g></g><g class="overaxes-above"/></g><g class="subplot x2y2"><g class="layer-subplot"><g class="shapelayer"/><g class="imagelayer"/></g><g class="minor-gridlayer"><g class="x2"/><g class="y2"/></g><g class="gridlayer"><g class="x2"><path class="x2grid crisp" transform="translate(818.6800000000001,0)" d="M0,100v420" style="stroke: rgb(255, 255, 255); stroke-opacity: 1; stroke-width: 1px;"/><path class="x2grid crisp" transform="translate(955.2700000000001,0)" d="M0,100v420" style="stroke: rgb(255, 255, 255); stroke-opacity: 1; stroke-width: 1px;"/><path class="x2grid crisp" transform="translate(1091.8500000000001,0)" d="M0,100v420" style="stroke: rgb(255, 255, 255); stroke-opacity: 1; stroke-width: 1px;"/><path class="x2grid crisp" transform="translate(1228.44,0)" d="M0,100v420" style="stroke: rgb(255, 255, 255); stroke-opacity: 1; stroke-width: 1px;"/></g><g class="y2"><path class="y2grid crisp" transform="translate(0,435.69)" d="M743.3000000000001,0h542.6999999999999" style="stroke: rgb(255, 255, 255); stroke-opacity: 1; stroke-width: 1px;"/><path class="y2grid crisp" transform="translate(0,372.35)" d="M743.3000000000001,0h542.6999999999999" style="stroke: rgb(255, 255, 255); stroke-opacity: 1; stroke-width: 1px;"/><path class="y2grid crisp" transform="translate(0,309)" d="M743.3000000000001,0h542.6999999999999" style="stroke: rgb(255, 255, 255); stroke-opacity: 1; stroke-width: 1px;"/><path class="y2grid crisp" transform="translate(0,245.66)" d="M743.3000000000001,0h542.6999999999999" style="stroke: rgb(255, 255, 255); stroke-opacity: 1; stroke-width: 1px;"/><path class="y2grid crisp" transform="translate(0,182.32)" d="M743.3000000000001,0h542.6999999999999" style="stroke: rgb(255, 255, 255); stroke-opacity: 1; stroke-width: 1px;"/><path class="y2grid crisp" transform="translate(0,118.97)" d="M743.3000000000001,0h542.6999999999999" style="stroke: rgb(255, 255, 255); stroke-opacity: 1; stroke-width: 1px;"/></g></g><g class="zerolinelayer"><path class="y2zl zl crisp" transform="translate(0,499.03)" d="M743.3000000000001,0h542.6999999999999" style="stroke: rgb(255, 255, 255); stroke-opacity: 1; stroke-width: 2px;"/></g><g class="layer-between"><g class="shapelayer"/><g class="imagelayer"/></g><path class="xlines-below"/><path class="ylines-below"/><g class="overlines-below"/><g class="xaxislayer-below"/><g class="yaxislayer-below"/><g class="overaxes-below"/><g class="overplot"><g class="x2y2" transform="translate(743.3000000000001,100)" clip-path="url(#clip7badb3x2y2plot)"><g class="scatterlayer mlayer"><g class="trace scatter trace31692f" style="stroke-miterlimit: 2; opacity: 1;"><g class="fills"/><g class="errorbars"/><g class="lines"><path class="js-line" d="M80.9,398.59L81.1,397.38L100.09,395.9L102.52,395.26L115.69,394.63L130.23,392.98L144.96,392.44L144.96,392.13L163.65,392.06L174.8,390.35L177.85,389.78L178.48,388.23L178.48,387.63L178.51,386.39L181.22,385.41L194.14,383.86L196.5,382.78L198.36,381.42L205.95,381.01L218.93,379.62L226.08,378.98L232.37,376.96L238.74,376.23L244.12,370.78L246.26,369.01L246.99,363.37L247.89,362.58L248.6,362.04L248.84,358.56L251.15,351.21L252.93,350.26L257.76,347.79L263.02,347.47L263.55,346.08L270.77,341.14L270.79,340.57L275.65,338.19L276.92,336.7L282.87,335.91L283.31,335.5L285.72,334.55L291.78,332.24L292.23,331.25L293.35,330.62L293.63,327.11L301.73,324.13L301.93,323.34L302.27,320.96L306.62,318.9L306.81,318.3L312.21,317.54L312.22,316.78L312.99,316.15L328.57,311.68L329.57,309.75L330.05,306.39L331.47,305.66L333.23,305.16L333.38,303.19L336.97,301.51L340.92,298.98L341.91,298.06L344.82,296.92L352,295.5L353.21,294.83L353.58,282.7L355.75,189.24L361.16,188.86L362.51,186.96L363.36,183.76L363.47,181.51L369.15,180.88L372.98,177.14L382.85,176.44L384.29,175.78L391.86,174.96L394.57,173.37L394.69,171.79L402.24,171.03L405.55,169.29L406.21,168.02L406.25,163.33L414.74,162.73L415.75,162.35L415.89,161.4L416.05,157.98L417.99,157.35L419.23,155.76L421.19,154.24L421.28,151.46L424.75,150.19L427.95,143.92L431.04,143.13L431.73,142.68L436.22,142.18L439.14,140.81L444.02,136.19L444.25,131.28L444.25,126.88L444.25,122.22L445.77,110.69L445.86,109.36L447.37,104.64L448.78,101.19L453.77,99.93L455.4,98.41L457.73,92.64L460.07,90.01L460.6,88.24L461.25,86.28L461.67,84.63L465.49,83.55L470.45,83.08L470.6,82.25L473.16,80.32L477.26,78.45L478.89,77.25L480.43,75.98L481.42,74.33L484.86,73.42L484.86,72.97L484.87,71.99L487.22,71.01L493.56,68.73L493.78,63.28L506.31,61.6L507.68,59.1L507.68,56.6L508.89,54.64L512.77,52.86L515.08,52.07L515.85,51.72L516.25,50.61L519.82,50.58L521.81,49.44L522.19,47.92L523.68,46.59L525.24,42.63L527.12,40.79L532.31,37.44L533.21,35.13L536.08,34.75L537.24,33.7L538.73,28.47L539.81,27.94L540.71,22.01L542.7,21" style="vector-effect: none; fill: none; stroke: rgb(99, 110, 250); stroke-opacity: 1; stroke-width: 2px; opacity: 1;"/></g><g class="points"/><g class="text"/></g><g class="trace scatter trace08501a" style="stroke-miterlimit: 2; opacity: 1;"><g class="fills"/><g class="errorbars"/><g class="lines"><path class="js-line" d="M0,399L0.08,398.3L107.47,397.99L210.51,396.05L224.09,395.48L255.48,392.48L269.74,392.13L270.79,391.56L274.61,390.67L283.48,388.71L332.95,388.01L387.37,385.98L389.95,385.41L402.72,384.43L411.18,384.3L454.4,383.67L482.29,381.77L493.82,380.82L511.77,380.22L519.75,379.55L533.87,377.21L534.88,376.45L537.95,375.5L538.08,374.83" style="vector-effect: none; fill: none; stroke: rgb(239, 85, 59); stroke-opacity: 1; stroke-width: 2px; opacity: 1;"/></g><g class="points"/><g class="text"/></g><g class="trace scatter trace798ade" style="stroke-miterlimit: 2; opacity: 1;"><g class="fills"/><g class="errorbars"/><g class="lines"><path class="js-line" d="M184.16,398.21L225.95,397.73L230.93,396.62L254.01,395.99L276.47,394L276.47,392L278.82,391.97L368.01,391.15L374.87,389.91L419.08,389.66L422.8,387.31L432.87,383.7L442.4,383.54L463.81,382.91L464.28,382.59L472.61,381.8L476.88,372.93L479.02,364.76L487.08,364.54L488.67,362.99L503.23,362.29L511.52,361.98L512.02,360.71L518.42,358.43L520.07,356.53L529.87,355.77" style="vector-effect: none; fill: none; stroke: rgb(0, 204, 150); stroke-opacity: 1; stroke-width: 2px; opacity: 1;"/></g><g class="points"/><g class="text"/></g></g></g></g><g class="zerolinelayer-above"/><path class="xlines-above crisp" d="M0,0" style="fill: none;"/><path class="ylines-above crisp" d="M0,0" style="fill: none;"/><g class="overlines-above"/><g class="xaxislayer-above"><g class="x2tick"><text text-anchor="middle" x="0" y="535" transform="translate(818.6800000000001,0)" style="font-family: Arial; font-size: 14px; fill: rgb(42, 63, 95); fill-opacity: 1; white-space: pre;">1.55×10​<tspan style="font-size:70%" dy="-0.6em">18</tspan><tspan dy="0.42em">​</tspan></text></g><g class="x2tick"><text text-anchor="middle" x="0" y="535" style="font-family: Arial; font-size: 14px; fill: rgb(42, 63, 95); fill-opacity: 1; white-space: pre;" transform="translate(955.2700000000001,0)">1.6×10​<tspan style="font-size:70%" dy="-0.6em">18</tspan><tspan dy="0.42em">​</tspan></text></g><g class="x2tick"><text text-anchor="middle" x="0" y="535" style="font-family: Arial; font-size: 14px; fill: rgb(42, 63, 95); fill-opacity: 1; white-space: pre;" transform="translate(1091.8500000000001,0)">1.65×10​<tspan style="font-size:70%" dy="-0.6em">18</tspan><tspan dy="0.42em">​</tspan></text></g><g class="x2tick"><text text-anchor="middle" x="0" y="535" style="font-family: Arial; font-size: 14px; fill: rgb(42, 63, 95); fill-opacity: 1; white-space: pre;" transform="translate(1228.44,0)">1.7×10​<tspan style="font-size:70%" dy="-0.6em">18</tspan><tspan dy="0.42em">​</tspan></text></g></g><g class="yaxislayer-above"><g class="y2tick"><text text-anchor="end" x="742.3000000000001" y="4.8999999999999995" transform="translate(0,499.03)" style="font-family: Arial; font-size: 14px; fill: rgb(42, 63, 95); fill-opacity: 1; white-space: pre;">0</text></g><g class="y2tick"><text text-anchor="end" x="742.3000000000001" y="4.8999999999999995" style="font-family: Arial; font-size: 14px; fill: rgb(42, 63, 95); fill-opacity: 1; white-space: pre;" transform="translate(0,435.69)">2k</text></g><g class="y2tick"><text text-anchor="end" x="742.3000000000001" y="4.8999999999999995" style="font-family: Arial; font-size: 14px; fill: rgb(42, 63, 95); fill-opacity: 1; white-space: pre;" transform="translate(0,372.35)">4k</text></g><g class="y2tick"><text text-anchor="end" x="742.3000000000001" y="4.8999999999999995" style="font-family: Arial; font-size: 14px; fill: rgb(42, 63, 95); fill-opacity: 1; white-space: pre;" transform="translate(0,309)">6k</text></g><g class="y2tick"><text text-anchor="end" x="742.3000000000001" y="4.8999999999999995" style="font-family: Arial; font-size: 14px; fill: rgb(42, 63, 95); fill-opacity: 1; white-space: pre;" transform="translate(0,245.66)">8k</text></g><g class="y2tick"><text text-anchor="end" x="742.3000000000001" y="4.8999999999999995" style="font-family: Arial; font-size: 14px; fill: rgb(42, 63, 95); fill-opacity: 1; white-space: pre;" transform="translate(0,182.32)">10k</text></g><g class="y2tick"><text text-anchor="end" x="742.3000000000001" y="4.8999999999999995" style="font-family: Arial; font-size: 14px; fill: rgb(42, 63, 95); fill-opacity: 1; white-space: pre;" transform="translate(0,118.97)">12k</text></g></g><g class="overaxes-above"/></g></g><g class="polarlayer"/><g class="smithlayer"/><g class="ternarylayer"/><g class="geolayer"/><g class="funnelarealayer"/><g class="pielayer"/><g class="iciclelayer"/><g class="treemaplayer"/><g class="sunburstlayer"/><g class="glimages"/><defs id="topdefs-7badb3"><g class="clips"/><clipPath id="legend7badb3"><rect width="78" height="94" x="0" y="0"/></clipPath></defs><g class="layer-above"><g class="imagelayer"/><g class="shapelayer"/></g><g class="infolayer"><g class="legend" pointer-events="all" transform="translate(1310.1200000000001,100)"><rect class="bg" shape-rendering="crispEdges" style="stroke: rgb(68, 68, 68); stroke-opacity: 1; fill: rgb(255, 255, 255); fill-opacity: 1; stroke-width: 0px;" width="78" height="94" x="0" y="0"/><g class="scrollbox" transform="" clip-path="url(#legend7badb3)"><g class="groups" transform=""><g class="traces" transform="translate(0,15.6)" style="opacity: 1;"><text class="legendtext" text-anchor="start" x="40" y="5.46" style="font-family: Arial; font-size: 14px; fill: rgb(42, 63, 95); fill-opacity: 1; white-space: pre;">EEG</text><g class="layers" style="opacity: 1;"><g class="legendfill"/><g class="legendlines"><path class="js-line" d="M5,0h30" style="fill: none; stroke: rgb(99, 110, 250); stroke-opacity: 1; stroke-width: 2px;"/></g><g class="legendsymbols"><g class="legendpoints"/></g></g><rect class="legendtoggle" x="0" y="-10.6" width="72.6875" height="21.2" style="fill: rgb(0, 0, 0); fill-opacity: 0;"/></g></g><g class="groups" transform="translate(0,10)"><g class="traces" transform="translate(0,36.8)" style="opacity: 1;"><text class="legendtext" text-anchor="start" x="40" y="5.46" style="font-family: Arial; font-size: 14px; fill: rgb(42, 63, 95); fill-opacity: 1; white-space: pre;">MEG</text><g class="layers" style="opacity: 1;"><g class="legendfill"/><g class="legendlines"><path class="js-line" d="M5,0h30" style="fill: none; stroke: rgb(239, 85, 59); stroke-opacity: 1; stroke-width: 2px;"/></g><g class="legendsymbols"><g class="legendpoints"/></g></g><rect class="legendtoggle" x="0" y="-10.6" width="72.6875" height="21.2" style="fill: rgb(0, 0, 0); fill-opacity: 0;"/></g></g><g class="groups" transform="translate(0,20)"><g class="traces" transform="translate(0,58)" style="opacity: 1;"><text class="legendtext" text-anchor="start" x="40" y="5.46" style="font-family: Arial; font-size: 14px; fill: rgb(42, 63, 95); fill-opacity: 1; white-space: pre;">iEEG</text><g class="layers" style="opacity: 1;"><g class="legendfill"/><g class="legendlines"><path class="js-line" d="M5,0h30" style="fill: none; stroke: rgb(0, 204, 150); stroke-opacity: 1; stroke-width: 2px;"/></g><g class="legendsymbols"><g class="legendpoints"/></g></g><rect class="legendtoggle" x="0" y="-10.6" width="72.6875" height="21.2" style="fill: rgb(0, 0, 0); fill-opacity: 0;"/></g></g></g><rect class="scrollbar" rx="20" ry="3" width="0" height="0" style="fill: rgb(128, 139, 164); fill-opacity: 1;" x="0" y="0"/></g><g class="g-gtitle"><text class="gtitle" x="700" y="50" text-anchor="middle" dy="0em" style="opacity: 1; font-family: Arial; font-size: 24px; fill: rgb(42, 63, 95); fill-opacity: 1; white-space: pre;">Dataset Publications and Participants Over Time for Primary Modalities</text></g><g class="g-xtitle"><text class="xtitle" x="351.35" y="564.4" text-anchor="middle" style="opacity: 1; font-family: Arial; font-size: 17px; fill: rgb(42, 63, 95); fill-opacity: 1; white-space: pre;">Published Date</text></g><g class="g-x2title"><text class="x2title" x="1014.6500000000001" y="564.4" text-anchor="middle" style="opacity: 1; font-family: Arial; font-size: 17px; fill: rgb(42, 63, 95); fill-opacity: 1; white-space: pre;">Published Date</text></g><g class="g-ytitle"><text class="ytitle" transform="rotate(-90,35.190625,310)" x="35.190625" y="310" text-anchor="middle" style="opacity: 1; font-family: Arial; font-size: 17px; fill: rgb(42, 63, 95); fill-opacity: 1; white-space: pre;">Cumulative Publications</text></g><g class="g-y2title"><text class="y2title" transform="rotate(-90,699.2716796875,310)" x="699.2716796875" y="310" text-anchor="middle" style="opacity: 1; font-family: Arial; font-size: 17px; fill: rgb(42, 63, 95); fill-opacity: 1; white-space: pre;">Cumulative Participants</text></g><g class="annotation" data-index="0" style="opacity: 1;"><g class="annotation-text-g" transform="rotate(0,351.35,89.5)"><g class="cursor-pointer" transform="translate(234,79)"><rect class="bg" x="0.5" y="0.5" width="233" height="20" style="stroke-width: 1px; stroke: rgb(0, 0, 0); stroke-opacity: 0; fill: rgb(0, 0, 0); fill-opacity: 0;"/><text class="annotation-text" text-anchor="middle" x="117.171875" y="16" style="font-family: Arial; font-size: 16px; fill: rgb(42, 63, 95); fill-opacity: 1; white-space: pre;">Cumulative Dataset Publications</text></g></g></g><g class="annotation" data-index="1" style="opacity: 1;"><g class="annotation-text-g" transform="rotate(0,1014.65,89.5)"><g class="cursor-pointer" transform="translate(889,79)"><rect class="bg" x="0.5" y="0.5" width="250" height="20" style="stroke-width: 1px; stroke: rgb(0, 0, 0); stroke-opacity: 0; fill: rgb(0, 0, 0); fill-opacity: 0;"/><text class="annotation-text" text-anchor="middle" x="125.609375" y="16" style="font-family: Arial; font-size: 16px; fill: rgb(42, 63, 95); fill-opacity: 1; white-space: pre;">Cumulative Number of Participants</text></g></g></g></g></svg>