<svg class="main-svg" xmlns="http://www.w3.org/2000/svg" xmlns:xlink="http://www.w3.org/1999/xlink" width="1200" height="800" viewBox="0 0 1200 800" style=""><rect x="0" y="0" width="1200" height="800" style="fill: rgb(255, 255, 255); fill-opacity: 1;"/><defs id="defs-2e5fb9"><g class="clips"/><g class="gradients"/><g class="patterns"/></defs><g class="bglayer"/><g class="layer-below"><g class="imagelayer"/><g class="shapelayer"/></g><g class="cartesianlayer"/><g class="polarlayer"/><g class="smithlayer"/><g class="ternarylayer"/><g class="geolayer"/><g class="funnelarealayer"/><g class="pielayer"/><g class="iciclelayer"/><g class="treemaplayer"/><g class="sunburstlayer"/><g class="glimages"/><g class="sankey" transform="translate(80,100)matrix(1 0 0 1 0 0)" style="box-sizing: content-box; position: absolute; left: 0px; shape-rendering: geometricprecision; pointer-events: none;"><g class="sankey-links" style="fill: none;"><path class="sankey-link" d="M20,164.47669969108097C265,164.47669969108097 265,73.74082118109408 510,73.74082118109408L510,150.62364256903493C265,150.62364256903493 265,241.35952107902182 20,241.35952107902182Z" style="stroke: rgb(68, 68, 68); stroke-opacity: 1; fill: rgb(0, 0, 0); fill-opacity: 0.2; stroke-width: 0; opacity: 1;"/><path class="sankey-link" d="M20,277.3322173247556C265,277.3322173247556 265,367.93463646705925 510,367.93463646705925L510,394.03247491984655C265,394.03247491984655 265,303.4300557775429 20,303.4300557775429Z" style="stroke: rgb(68, 68, 68); stroke-opacity: 1; fill: rgb(0, 0, 0); fill-opacity: 0.2; stroke-width: 0; opacity: 1;"/><path class="sankey-link" d="M20,303.43005577754286C265,303.43005577754286 265,437.25100837728803 510,437.25100837728803L510,447.8312131554451C265,447.8312131554451 265,314.0102605556999 20,314.0102605556999Z" style="stroke: rgb(68, 68, 68); stroke-opacity: 1; fill: rgb(0, 0, 0); fill-opacity: 0.2; stroke-width: 0; opacity: 1;"/><path class="sankey-link" d="M20,249.8236849015474C265,249.8236849015474 265,254.694384114179 510,254.694384114179L510,256.8104250698104C265,256.8104250698104 265,251.9397258571788 20,251.9397258571788Z" style="stroke: rgb(68, 68, 68); stroke-opacity: 1; fill: rgb(0, 0, 0); fill-opacity: 0.2; stroke-width: 0; opacity: 1;"/><path class="sankey-link" d="M20,251.9397258571788C265,251.9397258571788 265,294.38618264556794 510,294.38618264556794L510,319.7786741131447C265,319.7786741131447 265,277.33221732475556 20,277.33221732475556Z" style="stroke: rgb(68, 68, 68); stroke-opacity: 1; fill: rgb(0, 0, 0); fill-opacity: 0.2; stroke-width: 0; opacity: 1;"/><path class="sankey-link" d="M20,241.35952107902182C265,241.35952107902182 265,207.9491157306855 510,207.9491157306855L510,216.4132795532111C265,216.4132795532111 265,249.82368490154744 20,249.82368490154744Z" style="stroke: rgb(68, 68, 68); stroke-opacity: 1; fill: rgb(0, 0, 0); fill-opacity: 0.2; stroke-width: 0; opacity: 1;"/><path class="sankey-link" d="M20,314.01026055569986C265,314.01026055569986 265,491.7550935980968 510,491.7550935980968L510,495.2818285241491C265,495.2818285241491 265,317.5369954817522 20,317.5369954817522Z" style="stroke: rgb(68, 68, 68); stroke-opacity: 1; fill: rgb(0, 0, 0); fill-opacity: 0.2; stroke-width: 0; opacity: 1;"/><path class="sankey-link" d="M20,317.5369954817522C265,317.5369954817522 265,534.2682800703277 510,534.2682800703277L510,535.6789740407486C265,535.6789740407486 265,318.94768945217305 20,318.94768945217305Z" style="stroke: rgb(68, 68, 68); stroke-opacity: 1; fill: rgb(0, 0, 0); fill-opacity: 0.2; stroke-width: 0; opacity: 1;"/><path class="sankey-link" d="M20,318.9476894521731C265,318.9476894521731 265,575.3707725721376 510,575.3707725721376L510,576.7814665425585C265,576.7814665425585 265,320.358383422594 20,320.358383422594Z" style="stroke: rgb(68, 68, 68); stroke-opacity: 1; fill: rgb(0, 0, 0); fill-opacity: 0.2; stroke-width: 0; opacity: 1;"/><path class="sankey-link" d="M20,357.9341409983515C265,357.9341409983515 265,150.62364256903493 510,150.62364256903493L510,164.0252352880338C265,164.0252352880338 265,371.3357337173503 20,371.3357337173503Z" style="stroke: rgb(68, 68, 68); stroke-opacity: 1; fill: rgb(0, 0, 0); fill-opacity: 0.2; stroke-width: 0; opacity: 1;"/><path class="sankey-link" d="M20,379.0945505546655C265,379.0945505546655 265,394.0324749198465 510,394.0324749198465L510,398.26455683110925C265,398.26455683110925 265,383.32663246592824 20,383.32663246592824Z" style="stroke: rgb(68, 68, 68); stroke-opacity: 1; fill: rgb(0, 0, 0); fill-opacity: 0.2; stroke-width: 0; opacity: 1;"/><path class="sankey-link" d="M20,383.3266324659283C265,383.3266324659283 265,447.831213155445 510,447.831213155445L510,448.53656014065547C265,448.53656014065547 265,384.03197945113874 20,384.03197945113874Z" style="stroke: rgb(0, 0, 0); stroke-opacity: 0.2; fill: rgb(0, 0, 0); fill-opacity: 0.2; stroke-width: 1; opacity: 1;"/><path class="sankey-link" d="M20,372.0410807025608C265,372.0410807025608 265,319.77867411314475 510,319.77867411314475L510,326.8321439652494C265,326.8321439652494 265,379.09455055466543 20,379.09455055466543Z" style="stroke: rgb(68, 68, 68); stroke-opacity: 1; fill: rgb(0, 0, 0); fill-opacity: 0.2; stroke-width: 0; opacity: 1;"/><path class="sankey-link" d="M20,371.33573371735037C265,371.33573371735037 265,216.41327955321108 510,216.41327955321108L510,217.11862653842152C265,217.11862653842152 265,372.0410807025608 20,372.0410807025608Z" style="stroke: rgb(0, 0, 0); stroke-opacity: 0.2; fill: rgb(0, 0, 0); fill-opacity: 0.2; stroke-width: 1; opacity: 1;"/><path class="sankey-link" d="M20,384.03197945113874C265,384.03197945113874 265,576.7814665425585 510,576.7814665425585L510,578.89750749819C265,578.89750749819 265,386.1480204067702 20,386.1480204067702Z" style="stroke: rgb(68, 68, 68); stroke-opacity: 1; fill: rgb(0, 0, 0); fill-opacity: 0.2; stroke-width: 0; opacity: 1;"/><path class="sankey-link" d="M20,423.7237779825277C265,423.7237779825277 265,164.0252352880338 510,164.0252352880338L510,170.37335815492798C265,170.37335815492798 265,430.07190084942187 20,430.07190084942187Z" style="stroke: rgb(68, 68, 68); stroke-opacity: 1; fill: rgb(0, 0, 0); fill-opacity: 0.2; stroke-width: 0; opacity: 1;"/><path class="sankey-link" d="M20,433.5986357754742C265,433.5986357754742 265,398.2645568311093 510,398.2645568311093L510,399.6752508015302C265,399.6752508015302 265,435.00932974589506 20,435.00932974589506Z" style="stroke: rgb(68, 68, 68); stroke-opacity: 1; fill: rgb(0, 0, 0); fill-opacity: 0.2; stroke-width: 0; opacity: 1;"/><path class="sankey-link" d="M20,435.0093297458951C265,435.0093297458951 265,448.53656014065547 510,448.53656014065547L510,454.1793360223392C265,454.1793360223392 265,440.65210562757886 20,440.65210562757886Z" style="stroke: rgb(68, 68, 68); stroke-opacity: 1; fill: rgb(0, 0, 0); fill-opacity: 0.2; stroke-width: 0; opacity: 1;"/><path class="sankey-link" d="M20,430.07190084942187C265,430.07190084942187 265,326.83214396524943 510,326.83214396524943L510,330.35887889130174C265,330.35887889130174 265,433.5986357754742 20,433.5986357754742Z" style="stroke: rgb(68, 68, 68); stroke-opacity: 1; fill: rgb(0, 0, 0); fill-opacity: 0.2; stroke-width: 0; opacity: 1;"/><path class="sankey-link" d="M20,440.65210562757886C265,440.65210562757886 265,495.2818285241491 510,495.2818285241491L510,496.69252249456997C265,496.69252249456997 265,442.06279959799974 20,442.06279959799974Z" style="stroke: rgb(68, 68, 68); stroke-opacity: 1; fill: rgb(0, 0, 0); fill-opacity: 0.2; stroke-width: 0; opacity: 1;"/><path class="sankey-link" d="M20,442.0627995979998C265,442.0627995979998 265,535.6789740407486 510,535.6789740407486L510,537.79501499638C265,537.79501499638 265,444.17884055363123 20,444.17884055363123Z" style="stroke: rgb(68, 68, 68); stroke-opacity: 1; fill: rgb(0, 0, 0); fill-opacity: 0.2; stroke-width: 0; opacity: 1;"/><path class="sankey-link" d="M20,444.1788405536312C265,444.1788405536312 265,616.4732650739476 510,616.4732650739476L510,619.9999999999999C265,619.9999999999999 265,447.7055754796835 20,447.7055754796835Z" style="stroke: rgb(68, 68, 68); stroke-opacity: 1; fill: rgb(0, 0, 0); fill-opacity: 0.2; stroke-width: 0; opacity: 1;"/><path class="sankey-link" d="M530,73.74082118109408C775,73.74082118109408 775,-3.268496584496461e-13 1020,-3.268496584496461e-13L1020,9.16951080773574C775,9.16951080773574 775,82.91033198883014 530,82.91033198883014Z" style="stroke: rgb(68, 68, 68); stroke-opacity: 1; fill: rgb(0, 0, 0); fill-opacity: 0.2; stroke-width: 0; opacity: 1;"/><path class="sankey-link" d="M530,99.13331264867087C775,99.13331264867087 775,111.1242113972487 1020,111.1242113972487L1020,128.0525390422999C775,128.0525390422999 775,116.06164029372208 530,116.06164029372208Z" style="stroke: rgb(68, 68, 68); stroke-opacity: 1; fill: rgb(0, 0, 0); fill-opacity: 0.2; stroke-width: 0; opacity: 1;"/><path class="sankey-link" d="M530,149.9182955838245C775,149.9182955838245 775,319.07332712793453 1020,319.07332712793453L1020,325.4214499948287C775,325.4214499948287 775,156.26641845071867 530,156.26641845071867Z" style="stroke: rgb(68, 68, 68); stroke-opacity: 1; fill: rgb(0, 0, 0); fill-opacity: 0.2; stroke-width: 0; opacity: 1;"/><path class="sankey-link" d="M530,132.98996793877328C775,132.98996793877328 775,246.2302202916539 1020,246.2302202916539L1020,263.1585479367051C775,263.1585479367051 775,149.91829558382446 530,149.91829558382446Z" style="stroke: rgb(68, 68, 68); stroke-opacity: 1; fill: rgb(0, 0, 0); fill-opacity: 0.2; stroke-width: 0; opacity: 1;"/><path class="sankey-link" d="M530,163.31988830282333C775,163.31988830282333 775,426.6708035991311 1020,426.6708035991311L1020,429.49219153997296C775,429.49219153997296 775,166.1412762436652 530,166.1412762436652Z" style="stroke: rgb(68, 68, 68); stroke-opacity: 1; fill: rgb(0, 0, 0); fill-opacity: 0.2; stroke-width: 0; opacity: 1;"/><path class="sankey-link" d="M530,82.91033198883014C775,82.91033198883014 775,51.68269727996653 1020,51.68269727996653L1020,67.90567793980726C775,67.90567793980726 775,99.13331264867088 530,99.13331264867088Z" style="stroke: rgb(68, 68, 68); stroke-opacity: 1; fill: rgb(0, 0, 0); fill-opacity: 0.2; stroke-width: 0; opacity: 1;"/><path class="sankey-link" d="M530,156.26641845071867C775,156.26641845071867 775,372.16671837832234 1020,372.16671837832234L1020,379.22018823042697C775,379.22018823042697 775,163.31988830282336 530,163.31988830282336Z" style="stroke: rgb(68, 68, 68); stroke-opacity: 1; fill: rgb(0, 0, 0); fill-opacity: 0.2; stroke-width: 0; opacity: 1;"/><path class="sankey-link" d="M530,116.06164029372206C775,116.06164029372206 775,180.44058330747765 1020,180.44058330747765L1020,197.36891095252884C775,197.36891095252884 775,132.98996793877328 530,132.98996793877328Z" style="stroke: rgb(68, 68, 68); stroke-opacity: 1; fill: rgb(0, 0, 0); fill-opacity: 0.2; stroke-width: 0; opacity: 1;"/><path class="sankey-link" d="M530,166.1412762436652C775,166.1412762436652 775,483.9962767607818 1020,483.9962767607818L1020,485.4069707312027C775,485.4069707312027 775,167.55197021408614 530,167.55197021408614Z" style="stroke: rgb(68, 68, 68); stroke-opacity: 1; fill: rgb(0, 0, 0); fill-opacity: 0.2; stroke-width: 0; opacity: 1;"/><path class="sankey-link" d="M530,167.55197021408614C775,167.55197021408614 775,530.0361981590651 1020,530.0361981590651L1020,532.1522391146965C775,532.1522391146965 775,169.66801116971752 530,169.66801116971752Z" style="stroke: rgb(68, 68, 68); stroke-opacity: 1; fill: rgb(0, 0, 0); fill-opacity: 0.2; stroke-width: 0; opacity: 1;"/><path class="sankey-link" d="M530,368.6399834522697C775,368.6399834522697 775,136.51670286482553 1020,136.51670286482553L1020,142.15947874650928C775,142.15947874650928 775,374.28275933395344 530,374.28275933395344Z" style="stroke: rgb(68, 68, 68); stroke-opacity: 1; fill: rgb(0, 0, 0); fill-opacity: 0.2; stroke-width: 0; opacity: 1;"/><path class="sankey-link" d="M530,388.3896990381628C775,388.3896990381628 775,328.948184920881 1020,328.948184920881L1020,333.8856138173543C775,333.8856138173543 775,393.3271279346361 530,393.3271279346361Z" style="stroke: rgb(68, 68, 68); stroke-opacity: 1; fill: rgb(0, 0, 0); fill-opacity: 0.2; stroke-width: 0; opacity: 1;"/><path class="sankey-link" d="M530,379.9255352156372C775,379.9255352156372 775,273.03340572965163 1020,273.03340572965163L1020,281.49756955217725C775,281.49756955217725 775,388.3896990381628 530,388.3896990381628Z" style="stroke: rgb(68, 68, 68); stroke-opacity: 1; fill: rgb(0, 0, 0); fill-opacity: 0.2; stroke-width: 0; opacity: 1;"/><path class="sankey-link" d="M530,396.85386286068837C775,396.85386286068837 775,432.3135794808148 1020,432.3135794808148L1020,433.72427345123566C775,433.72427345123566 775,398.26455683110925 530,398.26455683110925Z" style="stroke: rgb(68, 68, 68); stroke-opacity: 1; fill: rgb(0, 0, 0); fill-opacity: 0.2; stroke-width: 0; opacity: 1;"/><path class="sankey-link" d="M530,367.93463646705925C775,367.93463646705925 775,72.13775985107006 1020,72.13775985107006L1020,72.84310683628053C775,72.84310683628053 775,368.6399834522697 530,368.6399834522697Z" style="stroke: rgb(0, 0, 0); stroke-opacity: 0.2; fill: rgb(0, 0, 0); fill-opacity: 0.2; stroke-width: 1; opacity: 1;"/><path class="sankey-link" d="M530,393.32712793463605C775,393.32712793463605 775,384.8629641121108 1020,384.8629641121108L1020,388.3896990381631C775,388.3896990381631 775,396.85386286068837 530,396.85386286068837Z" style="stroke: rgb(68, 68, 68); stroke-opacity: 1; fill: rgb(0, 0, 0); fill-opacity: 0.2; stroke-width: 0; opacity: 1;"/><path class="sankey-link" d="M530,374.28275933395344C775,374.28275933395344 775,203.0116868342126 1020,203.0116868342126L1020,208.65446271589636C775,208.65446271589636 775,379.9255352156372 530,379.9255352156372Z" style="stroke: rgb(68, 68, 68); stroke-opacity: 1; fill: rgb(0, 0, 0); fill-opacity: 0.2; stroke-width: 0; opacity: 1;"/><path class="sankey-link" d="M530,398.2645568311093C775,398.2645568311093 775,486.8176647016237 1020,486.8176647016237L1020,488.2283586720446C775,488.2283586720446 775,399.6752508015302 530,399.6752508015302Z" style="stroke: rgb(68, 68, 68); stroke-opacity: 1; fill: rgb(0, 0, 0); fill-opacity: 0.2; stroke-width: 0; opacity: 1;"/><path class="sankey-link" d="M530,437.25100837728803C775,437.25100837728803 775,142.15947874650928 1020,142.15947874650928L1020,142.86482573171972C775,142.86482573171972 775,437.95635536249847 530,437.95635536249847Z" style="stroke: rgb(0, 0, 0); stroke-opacity: 0.2; fill: rgb(0, 0, 0); fill-opacity: 0.2; stroke-width: 1; opacity: 1;"/><path class="sankey-link" d="M530,447.83121315544497C775,447.83121315544497 775,573.2547316165064 1020,573.2547316165064L1020,579.6028544834007C775,579.6028544834007 775,454.17933602233916 530,454.17933602233916Z" style="stroke: rgb(68, 68, 68); stroke-opacity: 1; fill: rgb(0, 0, 0); fill-opacity: 0.2; stroke-width: 0; opacity: 1;"/><path class="sankey-link" d="M530,437.95635536249847C775,437.95635536249847 775,333.8856138173542 1020,333.8856138173542L1020,334.59096080256467C775,334.59096080256467 775,438.6617023477089 530,438.6617023477089Z" style="stroke: rgb(0, 0, 0); stroke-opacity: 0.2; fill: rgb(0, 0, 0); fill-opacity: 0.2; stroke-width: 1; opacity: 1;"/><path class="sankey-link" d="M530,438.6617023477089C775,438.6617023477089 775,433.7242734512357 1020,433.7242734512357L1020,442.18843727376134C775,442.18843727376134 775,447.12586617023453 530,447.12586617023453Z" style="stroke: rgb(68, 68, 68); stroke-opacity: 1; fill: rgb(0, 0, 0); fill-opacity: 0.2; stroke-width: 0; opacity: 1;"/><path class="sankey-link" d="M530,447.12586617023453C775,447.12586617023453 775,488.22835867204464 1020,488.22835867204464L1020,488.9337056572551C775,488.9337056572551 775,447.83121315544497 530,447.83121315544497Z" style="stroke: rgb(0, 0, 0); stroke-opacity: 0.2; fill: rgb(0, 0, 0); fill-opacity: 0.2; stroke-width: 1; opacity: 1;"/><path class="sankey-link" d="M530,254.694384114179C775,254.694384114179 775,129.46323301272085 1020,129.46323301272085L1020,130.87392698314179C775,130.87392698314179 775,256.10507808459994 530,256.10507808459994Z" style="stroke: rgb(68, 68, 68); stroke-opacity: 1; fill: rgb(0, 0, 0); fill-opacity: 0.2; stroke-width: 0; opacity: 1;"/><path class="sankey-link" d="M530,256.10507808459994C775,256.10507808459994 775,326.12679698003916 1020,326.12679698003916L1020,326.8321439652496C775,326.8321439652496 775,256.8104250698104 530,256.8104250698104Z" style="stroke: rgb(0, 0, 0); stroke-opacity: 0.2; fill: rgb(0, 0, 0); fill-opacity: 0.2; stroke-width: 1; opacity: 1;"/><path class="sankey-link" d="M530,294.38618264556794C775,294.38618264556794 775,13.40159271899854 1020,13.40159271899854L1020,14.106939704209008C775,14.106939704209008 775,295.0915296307784 530,295.0915296307784Z" style="stroke: rgb(0, 0, 0); stroke-opacity: 0.2; fill: rgb(0, 0, 0); fill-opacity: 0.2; stroke-width: 1; opacity: 1;"/><path class="sankey-link" d="M530,299.3236115420412C775,299.3236115420412 775,130.87392698314179 1020,130.87392698314179L1020,136.51670286482553C775,136.51670286482553 775,304.96638742372494 530,304.96638742372494Z" style="stroke: rgb(68, 68, 68); stroke-opacity: 1; fill: rgb(0, 0, 0); fill-opacity: 0.2; stroke-width: 0; opacity: 1;"/><path class="sankey-link" d="M530,318.3679801427238C775,318.3679801427238 775,326.8321439652496 1020,326.8321439652496L1020,328.94818492088103C775,328.94818492088103 775,320.48402109835524 530,320.48402109835524Z" style="stroke: rgb(68, 68, 68); stroke-opacity: 1; fill: rgb(0, 0, 0); fill-opacity: 0.2; stroke-width: 0; opacity: 1;"/><path class="sankey-link" d="M530,309.9038163201982C775,309.9038163201982 775,264.569241907126 1020,264.569241907126L1020,273.03340572965163C775,273.03340572965163 775,318.3679801427238 530,318.3679801427238Z" style="stroke: rgb(68, 68, 68); stroke-opacity: 1; fill: rgb(0, 0, 0); fill-opacity: 0.2; stroke-width: 0; opacity: 1;"/><path class="sankey-link" d="M530,326.12679698003893C775,326.12679698003893 775,430.1975385251834 1020,430.1975385251834L1020,432.31357948081484C775,432.31357948081484 775,328.24283793567037 530,328.24283793567037Z" style="stroke: rgb(68, 68, 68); stroke-opacity: 1; fill: rgb(0, 0, 0); fill-opacity: 0.2; stroke-width: 0; opacity: 1;"/><path class="sankey-link" d="M530,295.0915296307784C775,295.0915296307784 775,67.90567793980726 1020,67.90567793980726L1020,72.13775985107007C775,72.13775985107007 775,299.32361154204114 530,299.32361154204114Z" style="stroke: rgb(68, 68, 68); stroke-opacity: 1; fill: rgb(0, 0, 0); fill-opacity: 0.2; stroke-width: 0; opacity: 1;"/><path class="sankey-link" d="M530,320.4840210983552C775,320.4840210983552 775,379.220188230427 1020,379.220188230427L1020,384.8629641121108C775,384.8629641121108 775,326.12679698003893 530,326.12679698003893Z" style="stroke: rgb(68, 68, 68); stroke-opacity: 1; fill: rgb(0, 0, 0); fill-opacity: 0.2; stroke-width: 0; opacity: 1;"/><path class="sankey-link" d="M530,304.96638742372494C775,304.96638742372494 775,198.07425793773933 1020,198.07425793773933L1020,203.01168683421258C775,203.01168683421258 775,309.90381632019825 530,309.90381632019825Z" style="stroke: rgb(68, 68, 68); stroke-opacity: 1; fill: rgb(0, 0, 0); fill-opacity: 0.2; stroke-width: 0; opacity: 1;"/><path class="sankey-link" d="M530,328.2428379356703C775,328.2428379356703 775,485.40697073120276 1020,485.40697073120276L1020,486.81766470162364C775,486.81766470162364 775,329.6535319060912 530,329.6535319060912Z" style="stroke: rgb(68, 68, 68); stroke-opacity: 1; fill: rgb(0, 0, 0); fill-opacity: 0.2; stroke-width: 0; opacity: 1;"/><path class="sankey-link" d="M530,207.9491157306855C775,207.9491157306855 775,9.16951080773574 1020,9.16951080773574L1020,13.40159271899854C775,13.40159271899854 775,212.1811976419483 530,212.1811976419483Z" style="stroke: rgb(68, 68, 68); stroke-opacity: 1; fill: rgb(0, 0, 0); fill-opacity: 0.2; stroke-width: 0; opacity: 1;"/><path class="sankey-link" d="M530,212.1811976419483C775,212.1811976419483 775,128.0525390422999 1020,128.0525390422999L1020,129.46323301272085C775,129.46323301272085 775,213.59189161236924 530,213.59189161236924Z" style="stroke: rgb(68, 68, 68); stroke-opacity: 1; fill: rgb(0, 0, 0); fill-opacity: 0.2; stroke-width: 0; opacity: 1;"/><path class="sankey-link" d="M530,215.70793256800064C775,215.70793256800064 775,325.4214499948287 1020,325.4214499948287L1020,326.12679698003916C775,326.12679698003916 775,216.41327955321108 530,216.41327955321108Z" style="stroke: rgb(0, 0, 0); stroke-opacity: 0.2; fill: rgb(0, 0, 0); fill-opacity: 0.2; stroke-width: 1; opacity: 1;"/><path class="sankey-link" d="M530,214.2972385975797C775,214.2972385975797 775,263.1585479367051 1020,263.1585479367051L1020,264.56924190712596C775,264.56924190712596 775,215.70793256800064 530,215.70793256800064Z" style="stroke: rgb(68, 68, 68); stroke-opacity: 1; fill: rgb(0, 0, 0); fill-opacity: 0.2; stroke-width: 0; opacity: 1;"/><path class="sankey-link" d="M530,216.4132795532111C775,216.4132795532111 775,429.49219153997296 1020,429.49219153997296L1020,430.1975385251834C775,430.1975385251834 775,217.11862653842155 530,217.11862653842155Z" style="stroke: rgb(0, 0, 0); stroke-opacity: 0.2; fill: rgb(0, 0, 0); fill-opacity: 0.2; stroke-width: 1; opacity: 1;"/><path class="sankey-link" d="M530,213.59189161236924C775,213.59189161236924 775,197.36891095252886 1020,197.36891095252886L1020,198.0742579377393C775,198.0742579377393 775,214.29723859757968 530,214.29723859757968Z" style="stroke: rgb(0, 0, 0); stroke-opacity: 0.2; fill: rgb(0, 0, 0); fill-opacity: 0.2; stroke-width: 1; opacity: 1;"/><path class="sankey-link" d="M530,492.4604405833072C775,492.4604405833072 775,442.18843727376134 1020,442.18843727376134L1020,443.5991312441822C775,443.5991312441822 775,493.8711345537281 530,493.8711345537281Z" style="stroke: rgb(68, 68, 68); stroke-opacity: 1; fill: rgb(0, 0, 0); fill-opacity: 0.2; stroke-width: 0; opacity: 1;"/><path class="sankey-link" d="M530,491.7550935980968C775,491.7550935980968 775,72.84310683628053 1020,72.84310683628053L1020,73.548453821491C775,73.548453821491 775,492.4604405833072 530,492.4604405833072Z" style="stroke: rgb(0, 0, 0); stroke-opacity: 0.2; fill: rgb(0, 0, 0); fill-opacity: 0.2; stroke-width: 1; opacity: 1;"/><path class="sankey-link" d="M530,493.87113455372815C775,493.87113455372815 775,617.1786120591582 1020,617.1786120591582L1020,620C775,620 775,496.69252249457 530,496.69252249457Z" style="stroke: rgb(68, 68, 68); stroke-opacity: 1; fill: rgb(0, 0, 0); fill-opacity: 0.2; stroke-width: 0; opacity: 1;"/><path class="sankey-link" d="M530,534.9736270555381C775,534.9736270555381 775,443.5991312441823 1020,443.5991312441823L1020,444.3044782293927C775,444.3044782293927 775,535.6789740407487 530,535.6789740407487Z" style="stroke: rgb(0, 0, 0); stroke-opacity: 0.2; fill: rgb(0, 0, 0); fill-opacity: 0.2; stroke-width: 1; opacity: 1;"/><path class="sankey-link" d="M530,534.2682800703277C775,534.2682800703277 775,388.3896990381631 1020,388.3896990381631L1020,389.0950460233735C775,389.0950460233735 775,534.9736270555383 530,534.9736270555383Z" style="stroke: rgb(0, 0, 0); stroke-opacity: 0.2; fill: rgb(0, 0, 0); fill-opacity: 0.2; stroke-width: 1; opacity: 1;"/><path class="sankey-link" d="M530,535.6789740407486C775,535.6789740407486 775,488.9337056572551 1020,488.9337056572551L1020,491.0497466128865C775,491.0497466128865 775,537.79501499638 530,537.79501499638Z" style="stroke: rgb(68, 68, 68); stroke-opacity: 1; fill: rgb(0, 0, 0); fill-opacity: 0.2; stroke-width: 0; opacity: 1;"/><path class="sankey-link" d="M530,616.4732650739476C775,616.4732650739476 775,444.3044782293927 1020,444.3044782293927L1020,446.42051918502415C775,446.42051918502415 775,618.589306029579 530,618.589306029579Z" style="stroke: rgb(68, 68, 68); stroke-opacity: 1; fill: rgb(0, 0, 0); fill-opacity: 0.2; stroke-width: 0; opacity: 1;"/><path class="sankey-link" d="M530,618.589306029579C775,618.589306029579 775,491.04974661288645 1020,491.04974661288645L1020,492.46044058330733C775,492.46044058330733 775,619.9999999999999 530,619.9999999999999Z" style="stroke: rgb(68, 68, 68); stroke-opacity: 1; fill: rgb(0, 0, 0); fill-opacity: 0.2; stroke-width: 0; opacity: 1;"/><path class="sankey-link" d="M530,575.3707725721376C775,575.3707725721376 775,532.1522391146965 1020,532.1522391146965L1020,535.6789740407488C775,535.6789740407488 775,578.89750749819 530,578.89750749819Z" style="stroke: rgb(68, 68, 68); stroke-opacity: 1; fill: rgb(0, 0, 0); fill-opacity: 0.2; stroke-width: 0; opacity: 1;"/></g><g class="sankey-node-set" style="cursor: move;"><g class="sankey-node" transform="translate(0.000,164.477)" style="opacity: 1;"><rect class="node-rect" width="20" height="155.88168373151296" style="stroke-width: 0.5; stroke: rgb(0, 0, 0); stroke-opacity: 1; fill: rgb(99, 110, 250); fill-opacity: 0.8;"/><text class="node-label" data-notex="1" x="0" y="0" text-anchor="start" transform="translate(23.25,82.14084186575649)" style="cursor: default; font-family: 'Open Sans', verdana, arial, sans-serif; font-size: 12px; fill: rgb(42, 63, 95); fill-opacity: 1; text-shadow: rgb(255, 255, 255) 1px 1px 1px, rgb(255, 255, 255) -1px -1px 1px, rgb(255, 255, 255) 1px -1px 1px, rgb(255, 255, 255) -1px 1px 1px; white-space: pre;">Main Modality: EEG</text></g><g class="sankey-node" transform="translate(0.000,357.934)" style="opacity: 1;"><rect class="node-rect" width="20" height="28.21387940841862" style="stroke-width: 0.5; stroke: rgb(0, 0, 0); stroke-opacity: 1; fill: rgb(239, 85, 59); fill-opacity: 0.8;"/><text class="node-label" data-notex="1" x="0" y="0" text-anchor="start" transform="translate(23.25,18.30693970420931)" style="cursor: default; font-family: 'Open Sans', verdana, arial, sans-serif; font-size: 12px; fill: rgb(42, 63, 95); fill-opacity: 1; text-shadow: rgb(255, 255, 255) 1px 1px 1px, rgb(255, 255, 255) -1px -1px 1px, rgb(255, 255, 255) 1px -1px 1px, rgb(255, 255, 255) -1px 1px 1px; white-space: pre;">Main Modality: MEG</text></g><g class="sankey-node" transform="translate(0.000,423.724)" style="opacity: 1;"><rect class="node-rect" width="20" height="23.981797497155867" style="stroke-width: 0.5; stroke: rgb(0, 0, 0); stroke-opacity: 1; fill: rgb(0, 204, 150); fill-opacity: 0.8;"/><text class="node-label" data-notex="1" x="0" y="0" text-anchor="start" transform="translate(23.25,16.190898748577933)" style="cursor: default; font-family: 'Open Sans', verdana, arial, sans-serif; font-size: 12px; fill: rgb(42, 63, 95); fill-opacity: 1; text-shadow: rgb(255, 255, 255) 1px 1px 1px, rgb(255, 255, 255) -1px -1px 1px, rgb(255, 255, 255) 1px -1px 1px, rgb(255, 255, 255) -1px 1px 1px; white-space: pre;">Main Modality: iEEG</text></g><g class="sankey-node" transform="translate(510.000,73.741)" style="opacity: 1;"><rect class="node-rect" width="20" height="96.63253697383385" style="stroke-width: 0.5; stroke: rgb(0, 0, 0); stroke-opacity: 1; fill: rgb(171, 99, 250); fill-opacity: 0.8;"/><text class="node-label" data-notex="1" x="0" y="0" text-anchor="start" transform="translate(23.25,52.51626848691693)" style="cursor: default; font-family: 'Open Sans', verdana, arial, sans-serif; font-size: 12px; fill: rgb(42, 63, 95); fill-opacity: 1; text-shadow: rgb(255, 255, 255) 1px 1px 1px, rgb(255, 255, 255) -1px -1px 1px, rgb(255, 255, 255) 1px -1px 1px, rgb(255, 255, 255) -1px 1px 1px; white-space: pre;">Modality of Experiment: visual</text></g><g class="sankey-node" transform="translate(510.000,367.935)" style="opacity: 1;"><rect class="node-rect" width="20" height="31.74061433447116" style="stroke-width: 0.5; stroke: rgb(0, 0, 0); stroke-opacity: 1; fill: rgb(255, 161, 90); fill-opacity: 0.8;"/><text class="node-label" data-notex="1" x="0" y="0" text-anchor="start" transform="translate(23.25,20.07030716723558)" style="cursor: default; font-family: 'Open Sans', verdana, arial, sans-serif; font-size: 12px; fill: rgb(42, 63, 95); fill-opacity: 1; text-shadow: rgb(255, 255, 255) 1px 1px 1px, rgb(255, 255, 255) -1px -1px 1px, rgb(255, 255, 255) 1px -1px 1px, rgb(255, 255, 255) -1px 1px 1px; white-space: pre;">Modality of Experiment: multisensory</text></g><g class="sankey-node" transform="translate(510.000,437.251)" style="opacity: 1;"><rect class="node-rect" width="20" height="16.928327645051127" style="stroke-width: 0.5; stroke: rgb(0, 0, 0); stroke-opacity: 1; fill: rgb(25, 211, 243); fill-opacity: 0.8;"/><text class="node-label" data-notex="1" x="0" y="0" text-anchor="start" transform="translate(23.25,12.664163822525563)" style="cursor: default; font-family: 'Open Sans', verdana, arial, sans-serif; font-size: 12px; fill: rgb(42, 63, 95); fill-opacity: 1; text-shadow: rgb(255, 255, 255) 1px 1px 1px, rgb(255, 255, 255) -1px -1px 1px, rgb(255, 255, 255) 1px -1px 1px, rgb(255, 255, 255) -1px 1px 1px; white-space: pre;">Modality of Experiment: resting state</text></g><g class="sankey-node" transform="translate(510.000,254.694)" style="opacity: 1;"><rect class="node-rect" width="20" height="2.1160409556313766" style="stroke-width: 0.5; stroke: rgb(0, 0, 0); stroke-opacity: 1; fill: rgb(255, 102, 146); fill-opacity: 0.8;"/><text class="node-label" data-notex="1" x="0" y="0" text-anchor="start" transform="translate(23.25,5.258020477815688)" style="cursor: default; font-family: 'Open Sans', verdana, arial, sans-serif; font-size: 12px; fill: rgb(42, 63, 95); fill-opacity: 1; text-shadow: rgb(255, 255, 255) 1px 1px 1px, rgb(255, 255, 255) -1px -1px 1px, rgb(255, 255, 255) 1px -1px 1px, rgb(255, 255, 255) -1px 1px 1px; white-space: pre;">Modality of Experiment: tactile</text></g><g class="sankey-node" transform="translate(510.000,294.386)" style="opacity: 1;"><rect class="node-rect" width="20" height="35.972696245733744" style="stroke-width: 0.5; stroke: rgb(0, 0, 0); stroke-opacity: 1; fill: rgb(182, 232, 128); fill-opacity: 0.8;"/><text class="node-label" data-notex="1" x="0" y="0" text-anchor="start" transform="translate(23.25,22.18634812286687)" style="cursor: default; font-family: 'Open Sans', verdana, arial, sans-serif; font-size: 12px; fill: rgb(42, 63, 95); fill-opacity: 1; text-shadow: rgb(255, 255, 255) 1px 1px 1px, rgb(255, 255, 255) -1px -1px 1px, rgb(255, 255, 255) 1px -1px 1px, rgb(255, 255, 255) -1px 1px 1px; white-space: pre;">Modality of Experiment: auditory</text></g><g class="sankey-node" transform="translate(510.000,207.949)" style="opacity: 1;"><rect class="node-rect" width="20" height="9.169510807735946" style="stroke-width: 0.5; stroke: rgb(0, 0, 0); stroke-opacity: 1; fill: rgb(255, 151, 255); fill-opacity: 0.8;"/><text class="node-label" data-notex="1" x="0" y="0" text-anchor="start" transform="translate(23.25,8.784755403867972)" style="cursor: default; font-family: 'Open Sans', verdana, arial, sans-serif; font-size: 12px; fill: rgb(42, 63, 95); fill-opacity: 1; text-shadow: rgb(255, 255, 255) 1px 1px 1px, rgb(255, 255, 255) -1px -1px 1px, rgb(255, 255, 255) 1px -1px 1px, rgb(255, 255, 255) -1px 1px 1px; white-space: pre;">Modality of Experiment: motor</text></g><g class="sankey-node" transform="translate(510.000,491.755)" style="opacity: 1;"><rect class="node-rect" width="20" height="4.937428896473307" style="stroke-width: 0.5; stroke: rgb(0, 0, 0); stroke-opacity: 1; fill: rgb(254, 203, 82); fill-opacity: 0.8;"/><text class="node-label" data-notex="1" x="0" y="0" text-anchor="start" transform="translate(23.25,6.668714448236653)" style="cursor: default; font-family: 'Open Sans', verdana, arial, sans-serif; font-size: 12px; fill: rgb(42, 63, 95); fill-opacity: 1; text-shadow: rgb(255, 255, 255) 1px 1px 1px, rgb(255, 255, 255) -1px -1px 1px, rgb(255, 255, 255) 1px -1px 1px, rgb(255, 255, 255) -1px 1px 1px; white-space: pre;">Modality of Experiment: sleep</text></g><g class="sankey-node" transform="translate(510.000,534.268)" style="opacity: 1;"><rect class="node-rect" width="20" height="3.5267349260523133" style="stroke-width: 0.5; stroke: rgb(0, 0, 0); stroke-opacity: 1; fill: rgb(99, 110, 250); fill-opacity: 0.8;"/><text class="node-label" data-notex="1" x="0" y="0" text-anchor="start" transform="translate(23.25,5.963367463026156)" style="cursor: default; font-family: 'Open Sans', verdana, arial, sans-serif; font-size: 12px; fill: rgb(42, 63, 95); fill-opacity: 1; text-shadow: rgb(255, 255, 255) 1px 1px 1px, rgb(255, 255, 255) -1px -1px 1px, rgb(255, 255, 255) 1px -1px 1px, rgb(255, 255, 255) -1px 1px 1px; white-space: pre;">Modality of Experiment: other</text></g><g class="sankey-node" transform="translate(510.000,616.473)" style="opacity: 1;"><rect class="node-rect" width="20" height="3.526734926052427" style="stroke-width: 0.5; stroke: rgb(0, 0, 0); stroke-opacity: 1; fill: rgb(239, 85, 59); fill-opacity: 0.8;"/><text class="node-label" data-notex="1" x="0" y="0" text-anchor="start" transform="translate(23.25,5.963367463026213)" style="cursor: default; font-family: 'Open Sans', verdana, arial, sans-serif; font-size: 12px; fill: rgb(42, 63, 95); fill-opacity: 1; text-shadow: rgb(255, 255, 255) 1px 1px 1px, rgb(255, 255, 255) -1px -1px 1px, rgb(255, 255, 255) 1px -1px 1px, rgb(255, 255, 255) -1px 1px 1px; white-space: pre;">Modality of Experiment: anasthesia</text></g><g class="sankey-node" transform="translate(510.000,575.371)" style="opacity: 1;"><rect class="node-rect" width="20" height="3.5267349260523133" style="stroke-width: 0.5; stroke: rgb(0, 0, 0); stroke-opacity: 1; fill: rgb(171, 99, 250); fill-opacity: 0.8;"/><text class="node-label" data-notex="1" x="0" y="0" text-anchor="start" transform="translate(23.25,5.963367463026156)" style="cursor: default; font-family: 'Open Sans', verdana, arial, sans-serif; font-size: 12px; fill: rgb(42, 63, 95); fill-opacity: 1; text-shadow: rgb(255, 255, 255) 1px 1px 1px, rgb(255, 255, 255) -1px -1px 1px, rgb(255, 255, 255) 1px -1px 1px, rgb(255, 255, 255) -1px 1px 1px; white-space: pre;">Modality of Experiment: unknown</text></g><g class="sankey-node" transform="translate(1020.000,-0.000)" style="opacity: 1;"><rect class="node-rect" width="20" height="14.106939704209296" style="stroke-width: 0.5; stroke: rgb(0, 0, 0); stroke-opacity: 1; fill: rgb(255, 161, 90); fill-opacity: 0.8;"/><text class="node-label" data-notex="1" x="0" y="0" text-anchor="end" transform="translate(-3.25,11.253469852104647)" style="cursor: default; font-family: 'Open Sans', verdana, arial, sans-serif; font-size: 12px; fill: rgb(42, 63, 95); fill-opacity: 1; text-shadow: rgb(255, 255, 255) 1px 1px 1px, rgb(255, 255, 255) -1px -1px 1px, rgb(255, 255, 255) 1px -1px 1px, rgb(255, 255, 255) -1px 1px 1px; white-space: pre;">Type of Experiment: motor</text></g><g class="sankey-node" transform="translate(1020.000,111.124)" style="opacity: 1;"><rect class="node-rect" width="20" height="31.74061433447139" style="stroke-width: 0.5; stroke: rgb(0, 0, 0); stroke-opacity: 1; fill: rgb(25, 211, 243); fill-opacity: 0.8;"/><text class="node-label" data-notex="1" x="0" y="0" text-anchor="end" transform="translate(-3.25,20.070307167235693)" style="cursor: default; font-family: 'Open Sans', verdana, arial, sans-serif; font-size: 12px; fill: rgb(42, 63, 95); fill-opacity: 1; text-shadow: rgb(255, 255, 255) 1px 1px 1px, rgb(255, 255, 255) -1px -1px 1px, rgb(255, 255, 255) 1px -1px 1px, rgb(255, 255, 255) -1px 1px 1px; white-space: pre;">Type of Experiment: perception</text></g><g class="sankey-node" transform="translate(1020.000,573.255)" style="opacity: 1;"><rect class="node-rect" width="20" height="6.348122866894187" style="stroke-width: 0.5; stroke: rgb(0, 0, 0); stroke-opacity: 1; fill: rgb(255, 102, 146); fill-opacity: 0.8;"/><text class="node-label" data-notex="1" x="0" y="0" text-anchor="end" transform="translate(-3.25,7.374061433447093)" style="cursor: default; font-family: 'Open Sans', verdana, arial, sans-serif; font-size: 12px; fill: rgb(42, 63, 95); fill-opacity: 1; text-shadow: rgb(255, 255, 255) 1px 1px 1px, rgb(255, 255, 255) -1px -1px 1px, rgb(255, 255, 255) 1px -1px 1px, rgb(255, 255, 255) -1px 1px 1px; white-space: pre;">Type of Experiment: resting state</text></g><g class="sankey-node" transform="translate(1020.000,319.073)" style="opacity: 1;"><rect class="node-rect" width="20" height="15.517633674630247" style="stroke-width: 0.5; stroke: rgb(0, 0, 0); stroke-opacity: 1; fill: rgb(182, 232, 128); fill-opacity: 0.8;"/><text class="node-label" data-notex="1" x="0" y="0" text-anchor="end" transform="translate(-3.25,11.958816837315123)" style="cursor: default; font-family: 'Open Sans', verdana, arial, sans-serif; font-size: 12px; fill: rgb(42, 63, 95); fill-opacity: 1; text-shadow: rgb(255, 255, 255) 1px 1px 1px, rgb(255, 255, 255) -1px -1px 1px, rgb(255, 255, 255) 1px -1px 1px, rgb(255, 255, 255) -1px 1px 1px; white-space: pre;">Type of Experiment: learning</text></g><g class="sankey-node" transform="translate(1020.000,246.230)" style="opacity: 1;"><rect class="node-rect" width="20" height="35.267349260523076" style="stroke-width: 0.5; stroke: rgb(0, 0, 0); stroke-opacity: 1; fill: rgb(255, 151, 255); fill-opacity: 0.8;"/><text class="node-label" data-notex="1" x="0" y="0" text-anchor="end" transform="translate(-3.25,21.833674630261537)" style="cursor: default; font-family: 'Open Sans', verdana, arial, sans-serif; font-size: 12px; fill: rgb(42, 63, 95); fill-opacity: 1; text-shadow: rgb(255, 255, 255) 1px 1px 1px, rgb(255, 255, 255) -1px -1px 1px, rgb(255, 255, 255) 1px -1px 1px, rgb(255, 255, 255) -1px 1px 1px; white-space: pre;">Type of Experiment: attention</text></g><g class="sankey-node" transform="translate(1020.000,426.671)" style="opacity: 1;"><rect class="node-rect" width="20" height="19.749715585893114" style="stroke-width: 0.5; stroke: rgb(0, 0, 0); stroke-opacity: 1; fill: rgb(254, 203, 82); fill-opacity: 0.8;"/><text class="node-label" data-notex="1" x="0" y="0" text-anchor="end" transform="translate(-3.25,14.074857792946556)" style="cursor: default; font-family: 'Open Sans', verdana, arial, sans-serif; font-size: 12px; fill: rgb(42, 63, 95); fill-opacity: 1; text-shadow: rgb(255, 255, 255) 1px 1px 1px, rgb(255, 255, 255) -1px -1px 1px, rgb(255, 255, 255) 1px -1px 1px, rgb(255, 255, 255) -1px 1px 1px; white-space: pre;">Type of Experiment: clinical/intervention</text></g><g class="sankey-node" transform="translate(1020.000,51.683)" style="opacity: 1;"><rect class="node-rect" width="20" height="21.865756541524604" style="stroke-width: 0.5; stroke: rgb(0, 0, 0); stroke-opacity: 1; fill: rgb(99, 110, 250); fill-opacity: 0.8;"/><text class="node-label" data-notex="1" x="0" y="0" text-anchor="end" transform="translate(-3.25,15.132878270762301)" style="cursor: default; font-family: 'Open Sans', verdana, arial, sans-serif; font-size: 12px; fill: rgb(42, 63, 95); fill-opacity: 1; text-shadow: rgb(255, 255, 255) 1px 1px 1px, rgb(255, 255, 255) -1px -1px 1px, rgb(255, 255, 255) 1px -1px 1px, rgb(255, 255, 255) -1px 1px 1px; white-space: pre;">Type of Experiment: memory</text></g><g class="sankey-node" transform="translate(1020.000,372.167)" style="opacity: 1;"><rect class="node-rect" width="20" height="16.928327645051127" style="stroke-width: 0.5; stroke: rgb(0, 0, 0); stroke-opacity: 1; fill: rgb(239, 85, 59); fill-opacity: 0.8;"/><text class="node-label" data-notex="1" x="0" y="0" text-anchor="end" transform="translate(-3.25,12.664163822525563)" style="cursor: default; font-family: 'Open Sans', verdana, arial, sans-serif; font-size: 12px; fill: rgb(42, 63, 95); fill-opacity: 1; text-shadow: rgb(255, 255, 255) 1px 1px 1px, rgb(255, 255, 255) -1px -1px 1px, rgb(255, 255, 255) 1px -1px 1px, rgb(255, 255, 255) -1px 1px 1px; white-space: pre;">Type of Experiment: affect</text></g><g class="sankey-node" transform="translate(1020.000,180.441)" style="opacity: 1;"><rect class="node-rect" width="20" height="28.213879408418677" style="stroke-width: 0.5; stroke: rgb(0, 0, 0); stroke-opacity: 1; fill: rgb(0, 204, 150); fill-opacity: 0.8;"/><text class="node-label" data-notex="1" x="0" y="0" text-anchor="end" transform="translate(-3.25,18.306939704209338)" style="cursor: default; font-family: 'Open Sans', verdana, arial, sans-serif; font-size: 12px; fill: rgb(42, 63, 95); fill-opacity: 1; text-shadow: rgb(255, 255, 255) 1px 1px 1px, rgb(255, 255, 255) -1px -1px 1px, rgb(255, 255, 255) 1px -1px 1px, rgb(255, 255, 255) -1px 1px 1px; white-space: pre;">Type of Experiment: decision-making</text></g><g class="sankey-node" transform="translate(1020.000,617.179)" style="opacity: 1;"><rect class="node-rect" width="20" height="2.8213879408417597" style="stroke-width: 0.5; stroke: rgb(0, 0, 0); stroke-opacity: 1; fill: rgb(171, 99, 250); fill-opacity: 0.8;"/><text class="node-label" data-notex="1" x="0" y="0" text-anchor="end" transform="translate(-3.25,5.610693970420879)" style="cursor: default; font-family: 'Open Sans', verdana, arial, sans-serif; font-size: 12px; fill: rgb(42, 63, 95); fill-opacity: 1; text-shadow: rgb(255, 255, 255) 1px 1px 1px, rgb(255, 255, 255) -1px -1px 1px, rgb(255, 255, 255) 1px -1px 1px, rgb(255, 255, 255) -1px 1px 1px; white-space: pre;">Type of Experiment: sleep</text></g><g class="sankey-node" transform="translate(1020.000,483.996)" style="opacity: 1;"><rect class="node-rect" width="20" height="8.46416382252562" style="stroke-width: 0.5; stroke: rgb(0, 0, 0); stroke-opacity: 1; fill: rgb(255, 161, 90); fill-opacity: 0.8;"/><text class="node-label" data-notex="1" x="0" y="0" text-anchor="end" transform="translate(-3.25,8.43208191126281)" style="cursor: default; font-family: 'Open Sans', verdana, arial, sans-serif; font-size: 12px; fill: rgb(42, 63, 95); fill-opacity: 1; text-shadow: rgb(255, 255, 255) 1px 1px 1px, rgb(255, 255, 255) -1px -1px 1px, rgb(255, 255, 255) 1px -1px 1px, rgb(255, 255, 255) -1px 1px 1px; white-space: pre;">Type of Experiment: other</text></g><g class="sankey-node" transform="translate(1020.000,530.036)" style="opacity: 1;"><rect class="node-rect" width="20" height="5.642775881683747" style="stroke-width: 0.5; stroke: rgb(0, 0, 0); stroke-opacity: 1; fill: rgb(255, 102, 146); fill-opacity: 0.8;"/><text class="node-label" data-notex="1" x="0" y="0" text-anchor="end" transform="translate(-3.25,7.021387940841873)" style="cursor: default; font-family: 'Open Sans', verdana, arial, sans-serif; font-size: 12px; fill: rgb(42, 63, 95); fill-opacity: 1; text-shadow: rgb(255, 255, 255) 1px 1px 1px, rgb(255, 255, 255) -1px -1px 1px, rgb(255, 255, 255) 1px -1px 1px, rgb(255, 255, 255) -1px 1px 1px; white-space: pre;">Type of Experiment: unknown</text></g></g></g><defs id="topdefs-2e5fb9"><g class="clips"/></defs><g class="layer-above"><g class="imagelayer"/><g class="shapelayer"/></g><g class="infolayer"><g class="g-gtitle"/><g class="first-render"/></g></svg>