<svg class="main-svg" xmlns="http://www.w3.org/2000/svg" xmlns:xlink="http://www.w3.org/1999/xlink" width="700" height="500" style="" viewBox="0 0 700 500"><rect x="0" y="0" width="700" height="500" style="fill: rgb(255, 255, 255); fill-opacity: 1;"/><defs id="defs-7bf758"><g class="clips"><clipPath id="clip7bf758xyplot" class="plotclip"><rect width="525" height="320"/></clipPath><clipPath class="axesclip" id="clip7bf758x"><rect x="80" y="0" width="525" height="500"/></clipPath><clipPath class="axesclip" id="clip7bf758y"><rect x="0" y="100" width="700" height="320"/></clipPath><clipPath class="axesclip" id="clip7bf758xy"><rect x="80" y="100" width="525" height="320"/></clipPath></g><g class="gradients"/><g class="patterns"/></defs><g class="bglayer"><rect class="bg" x="80" y="100" width="525" height="320" style="fill: rgb(229, 236, 246); fill-opacity: 1; stroke-width: 0;"/></g><g class="layer-below"><g class="imagelayer"/><g class="shapelayer"/></g><g class="cartesianlayer"><g class="subplot xy"><g class="layer-subplot"><g class="shapelayer"/><g class="imagelayer"/></g><g class="minor-gridlayer"><g class="x"/><g class="y"/></g><g class="gridlayer"><g class="x"><path class="xgrid crisp" transform="translate(143.14,0)" d="M0,100v320" style="stroke: rgb(255, 255, 255); stroke-opacity: 1; stroke-width: 1px;"/><path class="xgrid crisp" transform="translate(226.48,0)" d="M0,100v320" style="stroke: rgb(255, 255, 255); stroke-opacity: 1; stroke-width: 1px;"/><path class="xgrid crisp" transform="translate(310.05,0)" d="M0,100v320" style="stroke: rgb(255, 255, 255); stroke-opacity: 1; stroke-width: 1px;"/><path class="xgrid crisp" transform="translate(393.39,0)" d="M0,100v320" style="stroke: rgb(255, 255, 255); stroke-opacity: 1; stroke-width: 1px;"/><path class="xgrid crisp" transform="translate(476.72,0)" d="M0,100v320" style="stroke: rgb(255, 255, 255); stroke-opacity: 1; stroke-width: 1px;"/><path class="xgrid crisp" transform="translate(560.06,0)" d="M0,100v320" style="stroke: rgb(255, 255, 255); stroke-opacity: 1; stroke-width: 1px;"/></g><g class="y"><path class="ygrid crisp" transform="translate(0,339.85)" d="M80,0h525" style="stroke: rgb(255, 255, 255); stroke-opacity: 1; stroke-width: 1px;"/><path class="ygrid crisp" transform="translate(0,274.4)" d="M80,0h525" style="stroke: rgb(255, 255, 255); stroke-opacity: 1; stroke-width: 1px;"/><path class="ygrid crisp" transform="translate(0,208.95)" d="M80,0h525" style="stroke: rgb(255, 255, 255); stroke-opacity: 1; stroke-width: 1px;"/><path class="ygrid crisp" transform="translate(0,143.49)" d="M80,0h525" style="stroke: rgb(255, 255, 255); stroke-opacity: 1; stroke-width: 1px;"/></g></g><g class="zerolinelayer"><path class="yzl zl crisp" transform="translate(0,405.31)" d="M80,0h525" style="stroke: rgb(255, 255, 255); stroke-opacity: 1; stroke-width: 2px;"/></g><g class="layer-between"><g class="shapelayer"/><g class="imagelayer"/></g><path class="xlines-below"/><path class="ylines-below"/><g class="overlines-below"/><g class="xaxislayer-below"/><g class="yaxislayer-below"/><g class="overaxes-below"/><g class="overplot"><g class="xy" transform="translate(80,100)" clip-path="url(#clip7bf758xyplot)"><g class="scatterlayer mlayer"><g class="trace scatter trace6e8b68" style="stroke-miterlimit: 2; opacity: 1;"><g class="fills"/><g class="errorbars"/><g class="lines"><path class="js-line" d="M78.26,304L78.45,301.38L96.82,300.07L99.18,298.76L111.92,297.45L116.48,296.15L116.91,294.84L140.23,292.22L140.23,290.91L158.31,289.6L164.42,288.29L169.09,286.98L169.1,285.67L172.05,284.36L172.66,283.05L172.69,276.51L175.3,275.2L187.81,273.89L190.09,272.58L191.89,271.27L191.89,269.96L209.09,267.35L211.79,266.04L211.79,264.73L218.7,263.42L224.79,260.8L224.79,259.49L234.12,256.87L236.16,255.56L238.23,254.25L238.25,252.95L240.72,247.71L240.94,246.4L242.96,242.47L244.68,241.16L247.94,238.55L249.36,237.24L254.44,235.93L254.96,234.62L261.94,233.31L261.96,232L266.66,230.69L267.89,229.38L273.64,228.07L274.07,226.76L282.27,222.84L282.7,221.53L284.05,218.91L289.37,217.6L291.89,212.36L291.89,211.05L292.42,207.13L296.62,205.82L296.8,204.51L302.03,203.2L302.78,200.58L314.02,199.27L317.86,197.96L318.82,196.65L319.28,194.04L320.66,192.73L322.36,191.42L322.5,190.11L323.68,188.8L323.71,187.49L325.75,186.18L325.98,184.87L329.8,183.56L330.76,182.25L341.69,177.02L341.69,175.71L342.05,167.85L344.14,166.55L349.38,165.24L350.69,163.93L351.62,158.69L357.11,157.38L370.36,153.45L371.75,152.15L379.08,150.84L381.7,149.53L381.82,148.22L389.13,146.91L390.82,144.29L392.33,142.98L392.97,140.36L393,139.05L401.21,137.75L402.19,136.44L402.48,131.2L404.35,129.89L405.56,127.27L407.45,125.96L407.54,124.65L410.9,123.35L411.74,120.73L413.78,119.42L413.99,118.11L416.98,116.8L417.65,115.49L422,114.18L423.05,112.87L423.09,111.56L424.81,110.25L429.54,108.95L429.76,103.71L431.23,102.4L431.31,101.09L432.78,99.78L434.14,95.85L438.97,94.55L445.07,89.31L445.58,88L446.2,85.38L446.2,84.07L446.61,82.76L450.31,81.45L455.1,80.15L455.25,78.84L461.69,74.91L463.27,73.6L464.77,72.29L464.77,70.98L465.72,69.67L468.86,68.36L469.06,63.13L471.33,61.82L477.42,60.51L477.47,59.2L477.67,57.89L487.64,56.58L491.12,52.65L491.12,51.35L493.36,48.73L496.05,47.42L498.28,46.11L499.02,44.8L499.42,43.49L502.87,42.18L504.8,40.87L505.16,39.56L507.43,36.95L508.11,35.64L509.93,34.33L509.93,33.02L512.87,31.71L513.02,30.4L515.82,26.47L518.59,25.16L521.04,22.55L521.16,21.24L522.38,18.62L523.08,17.31L525,16" style="vector-effect: none; fill: none; stroke: rgb(99, 110, 250); stroke-opacity: 1; stroke-width: 2px; opacity: 1;"/></g><g class="points"/><g class="text"/></g><g class="trace scatter trace055345" style="stroke-miterlimit: 2; opacity: 1;"><g class="fills"/><g class="errorbars"/><g class="lines"><path class="js-line" d="M0,304L0.08,300.07L103.96,298.76L157.64,297.45L177.37,296.15L202.04,294.84L203.65,293.53L216.78,292.22L220.66,290.91L220.66,289.6L222.95,288.29L260.95,284.36L261.96,283.05L274.23,279.13L322.09,277.82L336.34,276.51L338.92,275.2L341.15,273.89L362.2,272.58L362.89,269.96L374.73,268.65L377.24,267.35L384.5,266.04L389.59,264.73L397.77,263.42L401.89,262.11L439.58,260.8L466.56,259.49L477.71,258.18L502.8,255.56L516.46,254.25L517.43,252.95L520.4,251.64L520.53,250.33" style="vector-effect: none; fill: none; stroke: rgb(239, 85, 59); stroke-opacity: 1; stroke-width: 2px; opacity: 1;"/></g><g class="points"/><g class="text"/></g><g class="trace scatter trace735d53" style="stroke-miterlimit: 2; opacity: 1;"><g class="fills"/><g class="errorbars"/><g class="lines"><path class="js-line" d="M178.15,304L218.58,301.38L223.4,300.07L267.46,297.45L267.46,296.15L269.73,294.84L295.92,293.53L297.3,292.22L356,290.91L362.65,289.6L405.41,288.29L409.01,286.98L418.75,285.67L444.98,281.75L448.68,280.44L449.14,279.13L455.1,277.82L457.19,276.51L461.33,275.2L463.4,273.89L471.2,272.58L472.73,271.27L486.82,269.96L492.86,268.65L494.83,267.35L495.32,266.04L501.51,264.73L503.11,263.42L510.6,262.11L512.59,260.8" style="vector-effect: none; fill: none; stroke: rgb(0, 204, 150); stroke-opacity: 1; stroke-width: 2px; opacity: 1;"/></g><g class="points"/><g class="text"/></g></g></g></g><path class="xlines-above crisp" d="M0,0" style="fill: none;"/><path class="ylines-above crisp" d="M0,0" style="fill: none;"/><g class="overlines-above"/><g class="xaxislayer-above"><g class="xtick"><text text-anchor="middle" x="0" y="433" transform="translate(143.14,0)" style="font-family: 'Open Sans', verdana, arial, sans-serif; font-size: 12px; fill: rgb(42, 63, 95); fill-opacity: 1; white-space: pre; opacity: 1;">2019</text></g><g class="xtick"><text text-anchor="middle" x="0" y="433" style="font-family: 'Open Sans', verdana, arial, sans-serif; font-size: 12px; fill: rgb(42, 63, 95); fill-opacity: 1; white-space: pre; opacity: 1;" transform="translate(226.48,0)">2020</text></g><g class="xtick"><text text-anchor="middle" x="0" y="433" style="font-family: 'Open Sans', verdana, arial, sans-serif; font-size: 12px; fill: rgb(42, 63, 95); fill-opacity: 1; white-space: pre; opacity: 1;" transform="translate(310.05,0)">2021</text></g><g class="xtick"><text text-anchor="middle" x="0" y="433" style="font-family: 'Open Sans', verdana, arial, sans-serif; font-size: 12px; fill: rgb(42, 63, 95); fill-opacity: 1; white-space: pre; opacity: 1;" transform="translate(393.39,0)">2022</text></g><g class="xtick"><text text-anchor="middle" x="0" y="433" style="font-family: 'Open Sans', verdana, arial, sans-serif; font-size: 12px; fill: rgb(42, 63, 95); fill-opacity: 1; white-space: pre; opacity: 1;" transform="translate(476.72,0)">2023</text></g><g class="xtick"><text text-anchor="middle" x="0" y="433" style="font-family: 'Open Sans', verdana, arial, sans-serif; font-size: 12px; fill: rgb(42, 63, 95); fill-opacity: 1; white-space: pre; opacity: 1;" transform="translate(560.06,0)">2024</text></g></g><g class="yaxislayer-above"><g class="ytick"><text text-anchor="end" x="79" y="4.199999999999999" transform="translate(0,405.31)" style="font-family: 'Open Sans', verdana, arial, sans-serif; font-size: 12px; fill: rgb(42, 63, 95); fill-opacity: 1; white-space: pre; opacity: 1;">0</text></g><g class="ytick"><text text-anchor="end" x="79" y="4.199999999999999" style="font-family: 'Open Sans', verdana, arial, sans-serif; font-size: 12px; fill: rgb(42, 63, 95); fill-opacity: 1; white-space: pre; opacity: 1;" transform="translate(0,339.85)">50</text></g><g class="ytick"><text text-anchor="end" x="79" y="4.199999999999999" style="font-family: 'Open Sans', verdana, arial, sans-serif; font-size: 12px; fill: rgb(42, 63, 95); fill-opacity: 1; white-space: pre; opacity: 1;" transform="translate(0,274.4)">100</text></g><g class="ytick"><text text-anchor="end" x="79" y="4.199999999999999" style="font-family: 'Open Sans', verdana, arial, sans-serif; font-size: 12px; fill: rgb(42, 63, 95); fill-opacity: 1; white-space: pre; opacity: 1;" transform="translate(0,208.95)">150</text></g><g class="ytick"><text text-anchor="end" x="79" y="4.199999999999999" style="font-family: 'Open Sans', verdana, arial, sans-serif; font-size: 12px; fill: rgb(42, 63, 95); fill-opacity: 1; white-space: pre; opacity: 1;" transform="translate(0,143.49)">200</text></g></g><g class="overaxes-above"/></g></g><g class="polarlayer"/><g class="smithlayer"/><g class="ternarylayer"/><g class="geolayer"/><g class="funnelarealayer"/><g class="pielayer"/><g class="iciclelayer"/><g class="treemaplayer"/><g class="sunburstlayer"/><g class="glimages"/><defs id="topdefs-7bf758"><g class="clips"/><clipPath id="legend7bf758"><rect width="72" height="67" x="0" y="0"/></clipPath></defs><g class="layer-above"><g class="imagelayer"/><g class="shapelayer"/></g><g class="infolayer"><g class="legend" pointer-events="all" transform="translate(615.5,100)"><rect class="bg" shape-rendering="crispEdges" style="stroke: rgb(68, 68, 68); stroke-opacity: 1; fill: rgb(255, 255, 255); fill-opacity: 1; stroke-width: 0px;" width="72" height="67" x="0" y="0"/><g class="scrollbox" transform="" clip-path="url(#legend7bf758)"><g class="groups"><g class="traces" transform="translate(0,14.5)" style="opacity: 1;"><text class="legendtext" text-anchor="start" x="40" y="4.680000000000001" style="font-family: 'Open Sans', verdana, arial, sans-serif; font-size: 12px; fill: rgb(42, 63, 95); fill-opacity: 1; white-space: pre;">EEG</text><g class="layers" style="opacity: 1;"><g class="legendfill"/><g class="legendlines"><path class="js-line" d="M5,0h30" style="fill: none; stroke: rgb(99, 110, 250); stroke-opacity: 1; stroke-width: 2px;"/></g><g class="legendsymbols"><g class="legendpoints"/></g></g><rect class="legendtoggle" x="0" y="-9.5" width="66.25" height="19" style="fill: rgb(0, 0, 0); fill-opacity: 0;"/></g><g class="traces" transform="translate(0,33.5)" style="opacity: 1;"><text class="legendtext" text-anchor="start" x="40" y="4.680000000000001" style="font-family: 'Open Sans', verdana, arial, sans-serif; font-size: 12px; fill: rgb(42, 63, 95); fill-opacity: 1; white-space: pre;">MEG</text><g class="layers" style="opacity: 1;"><g class="legendfill"/><g class="legendlines"><path class="js-line" d="M5,0h30" style="fill: none; stroke: rgb(239, 85, 59); stroke-opacity: 1; stroke-width: 2px;"/></g><g class="legendsymbols"><g class="legendpoints"/></g></g><rect class="legendtoggle" x="0" y="-9.5" width="66.25" height="19" style="fill: rgb(0, 0, 0); fill-opacity: 0;"/></g><g class="traces" transform="translate(0,52.5)" style="opacity: 1;"><text class="legendtext" text-anchor="start" x="40" y="4.680000000000001" style="font-family: 'Open Sans', verdana, arial, sans-serif; font-size: 12px; fill: rgb(42, 63, 95); fill-opacity: 1; white-space: pre;">iEEG</text><g class="layers" style="opacity: 1;"><g class="legendfill"/><g class="legendlines"><path class="js-line" d="M5,0h30" style="fill: none; stroke: rgb(0, 204, 150); stroke-opacity: 1; stroke-width: 2px;"/></g><g class="legendsymbols"><g class="legendpoints"/></g></g><rect class="legendtoggle" x="0" y="-9.5" width="66.25" height="19" style="fill: rgb(0, 0, 0); fill-opacity: 0;"/></g></g></g><rect class="scrollbar" rx="20" ry="3" width="0" height="0" style="fill: rgb(128, 139, 164); fill-opacity: 1;" x="0" y="0"/></g><g class="g-gtitle"><text class="gtitle" x="350" y="50" text-anchor="middle" dy="0em" style="opacity: 1; font-family: 'Open Sans', verdana, arial, sans-serif; font-size: 17px; fill: rgb(42, 63, 95); fill-opacity: 1; white-space: pre;">Cumulative Publications Over Time for Primary Modalities</text></g><g class="g-xtitle"><text class="xtitle" x="342.5" y="461.3" text-anchor="middle" style="opacity: 1; font-family: 'Open Sans', verdana, arial, sans-serif; font-size: 14px; fill: rgb(42, 63, 95); fill-opacity: 1; white-space: pre;">Published Date</text></g><g class="g-ytitle"><text class="ytitle" transform="rotate(-90,39.00625,260)" x="39.00625" y="260" text-anchor="middle" style="opacity: 1; font-family: 'Open Sans', verdana, arial, sans-serif; font-size: 14px; fill: rgb(42, 63, 95); fill-opacity: 1; white-space: pre;">Cumulative Number of Publications</text></g></g></svg>