<?xml version="1.0" encoding="UTF-8"?>
<svg id="Layer_1" xmlns="http://www.w3.org/2000/svg" version="1.1" viewBox="0 0 1200 800">
  <!-- Generator: Adobe Illustrator 29.4.0, SVG Export Plug-In . SVG Version: 2.1.0 Build 152)  -->
  <defs>
    <style>
      .st0 {
        fill: #fecb52;
      }

      .st0, .st1, .st2, .st3, .st4, .st5, .st6, .st7, .st8, .st9, .st10 {
        stroke: #000;
      }

      .st0, .st1, .st2, .st3, .st4, .st5, .st6, .st7, .st9, .st10 {
        fill-opacity: .8;
        stroke-width: .5px;
      }

      .st11, .st8 {
        fill-opacity: .2;
      }

      .st1 {
        fill: #19d3f3;
      }

      .st2 {
        fill: #ff97ff;
      }

      .st3 {
        fill: #ffa15a;
      }

      .st12 {
        font-family: ArialMT, Arial;
      }

      .st12, .st13 {
        font-size: 21px;
      }

      .st13 {
        font-family: Arial-BoldItalicMT, Arial;
        font-style: italic;
      }

      .st13, .st14 {
        font-weight: 700;
        isolation: isolate;
      }

      .st4 {
        fill: #636efa;
      }

      .st15 {
        fill: #fff;
      }

      .st5 {
        fill: #ff6692;
      }

      .st6 {
        fill: #ab63fa;
      }

      .st7 {
        fill: #00cc96;
      }

      .st8 {
        stroke-opacity: .2;
      }

      .st14 {
        font-family: Arial-BoldMT, Arial;
        font-size: 26px;
      }

      .st9 {
        fill: #b6e880;
      }

      .st10 {
        fill: #ef553b;
      }
    </style>
  </defs>
  <rect class="st15" y="1.47" width="1200" height="800"/>
  <g>
    <g>
      <path class="st11" d="M100,302.76c245,0,245-94.69,490-94.69v76.18c-245,0-245,94.69-490,94.69v-76.18Z"/>
      <path class="st11" d="M100,414.91c245,0,245,104.5,490,104.5v26.1c-245,0-245-104.5-490-104.5v-26.1Z"/>
      <path class="st11" d="M100,444.54c245,0,245,194.22,490,194.22v10.58c-245,0-245-194.22-490-194.22v-10.58h0Z"/>
      <path class="st11" d="M100,412.8c245,0,245,63.17,490,63.17v2.12c-245,0-245-63.17-490-63.17v-2.12h0Z"/>
      <path class="st11" d="M100,387.41c245,0,245,10.55,490,10.55v25.39c-245,0-245-10.55-490-10.55v-25.39h0Z"/>
      <path class="st11" d="M100,378.94c245,0,245-31.49,490-31.49v8.46c-245,0-245,31.49-490,31.49v-8.46Z"/>
      <path class="st11" d="M100,441.01c245,0,245,151.48,490,151.48v3.53c-245,0-245-151.48-490-151.48v-3.53h0Z"/>
      <path class="st11" d="M100,455.12c245,0,245,242.61,490,242.61v1.41c-245,0-245-242.61-490-242.61v-1.41h0Z"/>
      <path class="st11" d="M100,497.86c245,0,245-213.61,490-213.61v15.52c-245,0-245,213.61-490,213.61v-15.52Z"/>
      <path class="st11" d="M100,521.85c245,0,245,23.67,490,23.67v4.23c-245,0-245-23.67-490-23.67v-4.23h0Z"/>
      <path class="st11" d="M100,526.08c245,0,245,123.26,490,123.26v1.41c-245,0-245-123.26-490-123.26v-1.41h0Z"/>
      <path class="st11" d="M100,514.09c245,0,245-90.74,490-90.74v7.76c-245,0-245,90.74-490,90.74v-7.76Z"/>
      <path class="st8" d="M100,513.38c245,0,245-157.46,490-157.46v.71c-245,0-245,157.46-490,157.46v-.71h0Z"/>
      <path class="st11" d="M100,568.82c245,0,245-269.05,490-269.05v6.35c-245,0-245,269.05-490,269.05v-6.35Z"/>
      <path class="st11" d="M100,578.7c245,0,245-28.95,490-28.95v1.41c-245,0-245,28.95-490,28.95v-1.41Z"/>
      <path class="st11" d="M100,581.52c245,0,245,69.23,490,69.23v5.64c-245,0-245-69.23-490-69.23v-5.64Z"/>
      <path class="st11" d="M100,575.17c245,0,245-144.06,490-144.06v3.53c-245,0-245,144.06-490,144.06v-3.53Z"/>
      <path class="st11" d="M100,580.11c245,0,245,15.91,490,15.91v1.41c-245,0-245-15.91-490-15.91v-1.41Z"/>
      <path class="st11" d="M100,589.28c245,0,245,153.31,490,153.31v4.23c-245,0-245-153.31-490-153.31v-4.23Z"/>
      <path class="st11" d="M100,587.16c245,0,245,111.98,490,111.98v2.12c-245,0-245-111.98-490-111.98v-2.12Z"/>
      <path class="st11" d="M610,208.08c245,0,245-81.26,490-81.26v9.87c-245,0-245,81.26-490,81.26v-9.87h0Z"/>
      <path class="st11" d="M610,252.51c245,0,245,64.61,490,64.61v17.63c-245,0-245-64.61-490-64.61v-17.63h0Z"/>
      <path class="st11" d="M610,294.83c245,0,245,232.34,490,232.34v6.35c-245,0-245-232.34-490-232.34v-6.35Z"/>
      <path class="st11" d="M610,270.15c245,0,245,120.76,490,120.76v17.63c-245,0-245-120.76-490-120.76v-17.63h0Z"/>
      <path class="st11" d="M610,302.59c245,0,245,331.23,490,331.23v2.82c-245,0-245-331.23-490-331.23v-2.82Z"/>
      <path class="st11" d="M610,217.95c245,0,245-34.99,490-34.99v16.93c-245,0-245,34.99-490,34.99v-16.93Z"/>
      <path class="st11" d="M610,287.78c245,0,245,181.13,490,181.13v7.05c-245,0-245-181.13-490-181.13v-7.05Z"/>
      <path class="st11" d="M610,234.88c245,0,245,11.99,490,11.99v17.63c-245,0-245-11.99-490-11.99v-17.63Z"/>
      <path class="st11" d="M610,301.18c245,0,245,282.84,490,282.84v1.41c-245,0-245-282.84-490-282.84v-1.41h0Z"/>
      <path class="st11" d="M610,525.76c245,0,245-182.54,490-182.54v5.64c-245,0-245,182.54-490,182.54v-5.64Z"/>
      <path class="st11" d="M610,543.4c245,0,245-6.35,490-6.35v4.94c-245,0-245,6.35-490,6.35v-4.94h0Z"/>
      <path class="st11" d="M610,531.41c245,0,245-112.29,490-112.29v8.46c-245,0-245,112.29-490,112.29v-8.46Z"/>
      <path class="st11" d="M610,549.75c245,0,245,89.72,490,89.72v1.41c-245,0-245-89.72-490-89.72v-1.41Z"/>
      <path class="st8" d="M610,519.42c245,0,245-315.29,490-315.29v.71c-245,0-245,315.29-490,315.29v-.71Z"/>
      <path class="st11" d="M610,539.87c245,0,245-58.26,490-58.26v3.53c-245,0-245,58.26-490,58.26v-3.53h0Z"/>
      <path class="st11" d="M610,520.12c245,0,245-249.97,490-249.97v5.64c-245,0-245,249.97-490,249.97v-5.64Z"/>
      <path class="st11" d="M610,548.34c245,0,245,38.51,490,38.51v1.41c-245,0-245-38.51-490-38.51v-1.41Z"/>
      <path class="st8" d="M610,638.76c245,0,245-289.9,490-289.9v.71c-245,0-245,289.9-490,289.9v-.71Z"/>
      <path class="st11" d="M610,649.34c245,0,245,89.72,490,89.72v7.05c-245,0-245-89.72-490-89.72v-7.05h0Z"/>
      <path class="st8" d="M610,639.47c245,0,245-97.48,490-97.48v.71c-245,0-245,97.48-490,97.48v-.71Z"/>
      <path class="st11" d="M610,640.88c245,0,245,1.41,490,1.41v8.46c-245,0-245-1.41-490-1.41v-8.46Z"/>
      <path class="st8" d="M610,640.17c245,0,245-51.91,490-51.91v.71c-245,0-245,51.91-490,51.91v-.71Z"/>
      <path class="st11" d="M610,475.97c245,0,245-134.16,490-134.16v1.41c-245,0-245,134.16-490,134.16v-1.41Z"/>
      <path class="st8" d="M610,477.38c245,0,245,58.97,490,58.97v.71c-245,0-245-58.97-490-58.97v-.71Z"/>
      <path class="st8" d="M610,397.96c245,0,245-257.03,490-257.03v.71c-245,0-245,257.03-490,257.03v-.71Z"/>
      <path class="st11" d="M610,407.83c245,0,245-71.66,490-71.66v5.64c-245,0-245,71.66-490,71.66v-5.64Z"/>
      <path class="st11" d="M610,428.29c245,0,245,105.94,490,105.94v2.12c-245,0-245-105.94-490-105.94v-2.12Z"/>
      <path class="st11" d="M610,413.47c245,0,245-3.53,490-3.53v9.17c-245,0-245,3.53-490,3.53v-9.17Z"/>
      <path class="st11" d="M610,431.81c245,0,245,205.54,490,205.54v2.12c-245,0-245-205.54-490-205.54v-2.12Z"/>
      <path class="st11" d="M610,398.66c245,0,245-198.77,490-198.77v4.23c-245,0-245,198.77-490,198.77v-4.23Z"/>
      <path class="st11" d="M610,422.64c245,0,245,53.32,490,53.32v5.64c-245,0-245-53.32-490-53.32v-5.64Z"/>
      <path class="st11" d="M610,402.89c245,0,245-137.68,490-137.68v4.94c-245,0-245,137.68-490,137.68v-4.94Z"/>
      <path class="st11" d="M610,430.4c245,0,245,155.04,490,155.04v1.41c-245,0-245-155.04-490-155.04v-1.41Z"/>
      <path class="st11" d="M610,347.45c245,0,245-210.76,490-210.76v4.23c-245,0-245,210.76-490,210.76v-4.23Z"/>
      <path class="st11" d="M610,352.39c245,0,245-17.63,490-17.63v1.41c-245,0-245,17.63-490,17.63v-1.41Z"/>
      <path class="st8" d="M610,355.21c245,0,245,178.31,490,178.31v.71c-245,0-245-178.31-490-178.31v-.71Z"/>
      <path class="st11" d="M610,353.8c245,0,245,54.73,490,54.73v1.41c-245,0-245-54.73-490-54.73v-1.41Z"/>
      <path class="st8" d="M610,355.92c245,0,245,280.73,490,280.73v.71c-245,0-245-280.73-490-280.73v-.71h0Z"/>
      <path class="st8" d="M610,351.68c245,0,245-87.18,490-87.18v.71c-245,0-245,87.18-490,87.18v-.71h0Z"/>
      <path class="st11" d="M610,593.2c245,0,245,47.68,490,47.68v1.41c-245,0-245-47.68-490-47.68v-1.41Z"/>
      <path class="st8" d="M610,592.49c245,0,245-387.66,490-387.66v.71c-245,0-245,387.66-490,387.66v-.71Z"/>
      <path class="st11" d="M610,594.61c245,0,245,100.3,490,100.3v2.82c-245,0-245-100.3-490-100.3v-2.82Z"/>
      <path class="st8" d="M610,746.11h490v.71h-490v-.71Z"/>
      <path class="st11" d="M610,744c245,0,245-92.54,490-92.54v2.12c-245,0-245,92.54-490,92.54v-2.12Z"/>
      <path class="st11" d="M610,742.59c245,0,245-151.51,490-151.51v1.41c-245,0-245,151.51-490,151.51v-1.41Z"/>
      <path class="st8" d="M610,700.55c245,0,245-49.8,490-49.8v.71c-245,0-245,49.8-490,49.8v-.71Z"/>
      <path class="st8" d="M610,697.73c245,0,245-212.59,490-212.59v.71c-245,0-245,212.59-490,212.59v-.71Z"/>
      <path class="st11" d="M610,698.43c245,0,245-109.47,490-109.47v2.12c-245,0-245,109.47-490,109.47v-2.12Z"/>
    </g>
    <g>
      <rect class="st4" x="80" y="302.76" width="20" height="153.77"/>
      <rect class="st10" x="80" y="497.86" width="20" height="29.62"/>
      <rect class="st7" x="80" y="568.82" width="20" height="24.69"/>
      <rect class="st6" x="590" y="208.08" width="20" height="98.04"/>
      <rect class="st3" x="590" y="519.42" width="20" height="31.74"/>
      <rect class="st1" x="590" y="638.76" width="20" height="17.63"/>
      <rect class="st5" x="590" y="475.97" width="20" height="2.12"/>
      <rect class="st9" x="590" y="397.96" width="20" height="36.68"/>
      <rect class="st2" x="590" y="347.45" width="20" height="9.17"/>
      <rect class="st0" x="590" y="592.49" width="20" height="4.94"/>
      <rect class="st4" x="590" y="742.59" width="20" height="4.23"/>
      <rect class="st10" x="590" y="697.73" width="20" height="3.53"/>
      <rect class="st6" x="1100" y="126.82" width="20" height="14.81"/>
      <rect class="st3" x="1100" y="317.12" width="20" height="32.45"/>
      <rect class="st1" x="1100" y="739.06" width="20" height="7.76"/>
      <rect class="st5" x="1100" y="527.17" width="20" height="15.52"/>
      <rect class="st9" x="1100" y="390.9" width="20" height="36.68"/>
      <rect class="st2" x="1100" y="633.82" width="20" height="19.75"/>
      <rect class="st0" x="1100" y="182.97" width="20" height="22.57"/>
      <rect class="st4" x="1100" y="468.91" width="20" height="16.93"/>
      <rect class="st10" x="1100" y="246.87" width="20" height="28.92"/>
      <rect class="st7" x="1100" y="694.91" width="20" height="2.82"/>
      <rect class="st6" x="1100" y="584.03" width="20" height="8.46"/>
    </g>
  </g>
  <text class="st14" transform="translate(36.87 37.09)"><tspan x="0" y="0">Sankey Diagram relating primary modality, modality of experiment, and type of experiment</tspan></text>
  <text class="st13" transform="translate(15.55 284.25)"><tspan x="0" y="0">Primary Modality</tspan></text>
  <text class="st13" transform="translate(469.74 194.88)"><tspan x="0" y="0">Modality of experiment</tspan></text>
  <text class="st13" transform="translate(977.27 107.47)"><tspan x="0" y="0">Type of Experiment</tspan></text>
  <text class="st12" transform="translate(71.07 614.57)"><tspan x="0" y="0">iEEG</tspan></text>
  <text class="st12" transform="translate(71.07 548.34)"><tspan x="0" y="0">MEG</tspan></text>
  <text class="st12" transform="translate(71.07 477.03)"><tspan x="0" y="0">EEG</tspan></text>
  <text class="st12" transform="translate(569.68 327.69)"><tspan x="0" y="0">Visual</tspan></text>
  <text class="st12" transform="translate(573.41 378.94)"><tspan x="0" y="0">Motor</tspan></text>
  <text class="st12" transform="translate(561.21 455.12)"><tspan x="0" y="0">Auditory</tspan></text>
  <text class="st12" transform="translate(569.77 498.09)"><tspan x="0" y="0">Tactile</tspan></text>
  <text class="st12" transform="translate(537.18 569.34)"><tspan x="0" y="0">Multisensory</tspan></text>
  <text class="st12" transform="translate(574.99 617.74)"><tspan x="0" y="0">Sleep</tspan></text>
  <text class="st12" transform="translate(538.75 676.25)"><tspan x="0" y="0">Resting state</tspan></text>
  <text class="st12" transform="translate(574.99 722.15)"><tspan x="0" y="0">Other</tspan></text>
  <text class="st12" transform="translate(548.04 768.2)"><tspan x="0" y="0">Anasthesia</tspan></text>
  <text class="st12" transform="translate(1085.3 163.12)"><tspan x="0" y="0">Motor</tspan></text>
  <text class="st12" transform="translate(1072.97 225.44)"><tspan x="0" y="0">Memory</tspan></text>
  <text class="st12" transform="translate(1027.25 294.83)"><tspan x="0" y="0">Decision making</tspan></text>
  <text class="st12" transform="translate(1060.57 371.6)"><tspan x="0" y="0">Perception</tspan></text>
  <text class="st12" transform="translate(1069.02 452.35)"><tspan x="0" y="0">Attention</tspan></text>
  <text class="st12" transform="translate(1086.91 504.9)"><tspan x="0" y="0">Affect</tspan></text>
  <text class="st12" transform="translate(1068.98 564.93)"><tspan x="0" y="0">Learning</tspan></text>
  <text class="st12" transform="translate(1086.87 614.82)"><tspan x="0" y="0">Other</tspan></text>
  <text class="st12" transform="translate(1003.28 676)"><tspan x="0" y="0">Clinical/Intervention</tspan></text>
  <text class="st12" transform="translate(1086.87 722.15)"><tspan x="0" y="0">Sleep</tspan></text>
  <text class="st12" transform="translate(1046.74 768.6)"><tspan x="0" y="0">Resting state</tspan></text>
</svg>